<svg xmlns="http://www.w3.org/2000/svg" xmlns:xlink="http://www.w3.org/1999/xlink" width="500" zoomAndPan="magnify" viewBox="0 0 375 374.999991" height="500" preserveAspectRatio="xMidYMid meet" version="1.0"><defs><g/><clipPath id="092acac34e"><path d="M 145.070312 31.496094 L 246 31.496094 L 246 214.488281 L 145.070312 214.488281 Z M 145.070312 31.496094 " clip-rule="nonzero"/></clipPath><clipPath id="c66acf9231"><path d="M 14.710938 59 L 124 59 L 124 187 L 14.710938 187 Z M 14.710938 59 " clip-rule="nonzero"/></clipPath><clipPath id="523f301d08"><path d="M 251 59 L 360.460938 59 L 360.460938 187 L 251 187 Z M 251 59 " clip-rule="nonzero"/></clipPath></defs><g clip-path="url(#092acac34e)"><path fill="#e45814" d="M 245.402344 51.621094 C 244.746094 50.183594 243.550781 48.96875 241.953125 48.320312 C 238.746094 47.027344 235.132812 48.484375 233.882812 51.574219 L 219.613281 86.804688 C 218.359375 89.898438 215.410156 91.625 213.023438 90.660156 C 210.644531 89.699219 209.726562 86.410156 210.980469 83.316406 L 225.253906 48.089844 C 225.878906 46.546875 225.792969 44.875 225.160156 43.445312 C 224.519531 42.011719 223.320312 40.792969 221.722656 40.148438 C 218.507812 38.847656 214.894531 40.304688 213.640625 43.394531 L 199.367188 78.625 C 198.113281 81.71875 195.167969 83.445312 192.789062 82.484375 C 190.402344 81.519531 189.488281 78.234375 190.742188 75.140625 L 205.011719 39.910156 C 205.640625 38.367188 205.550781 36.699219 204.910156 35.265625 C 204.277344 33.832031 203.082031 32.617188 201.476562 31.96875 C 198.265625 30.671875 194.664062 32.132812 193.410156 35.222656 L 174.246094 82.527344 C 169.648438 93.875 172.886719 106.457031 181.210938 114.199219 L 145.890625 201.390625 C 143.945312 206.199219 146.410156 211.738281 151.394531 213.753906 C 156.378906 215.769531 162.003906 213.496094 163.953125 208.6875 L 199.253906 121.554688 C 210.683594 121.847656 221.710938 114.988281 226.332031 103.589844 L 245.496094 56.265625 C 246.121094 54.722656 246.039062 53.054688 245.402344 51.621094 " fill-opacity="1" fill-rule="nonzero"/></g><g clip-path="url(#c66acf9231)"><path fill="#04383f" d="M 19.804688 114.820312 L 110.289062 60.558594 C 111.652344 59.800781 113.167969 59.421875 114.835938 59.421875 C 117.335938 59.421875 119.476562 60.308594 121.257812 62.089844 C 123.039062 63.867188 123.929688 66.007812 123.929688 68.503906 C 123.929688 71.757812 122.375 74.40625 119.265625 76.449219 L 41.515625 122.992188 L 119.265625 169.535156 C 122.375 171.578125 123.929688 174.226562 123.929688 177.480469 C 123.929688 179.980469 123.039062 182.117188 121.257812 183.894531 C 119.476562 185.675781 117.335938 186.5625 114.835938 186.5625 C 113.167969 186.5625 111.652344 186.183594 110.289062 185.429688 L 19.804688 131.164062 C 16.472656 129.046875 14.804688 126.320312 14.804688 122.992188 C 14.804688 119.664062 16.472656 116.9375 19.804688 114.820312 " fill-opacity="1" fill-rule="nonzero"/></g><g clip-path="url(#523f301d08)"><path fill="#04383f" d="M 360.363281 122.992188 C 360.363281 126.320312 358.699219 129.046875 355.363281 131.164062 L 264.878906 185.429688 C 263.515625 186.183594 262.003906 186.5625 260.335938 186.5625 C 257.832031 186.5625 255.695312 185.675781 253.914062 183.894531 C 252.132812 182.117188 251.238281 179.980469 251.238281 177.480469 C 251.238281 174.226562 252.792969 171.578125 255.902344 169.535156 L 333.652344 122.992188 L 255.902344 76.449219 C 252.792969 74.40625 251.238281 71.757812 251.238281 68.503906 C 251.238281 66.007812 252.132812 63.867188 253.914062 62.089844 C 255.695312 60.308594 257.832031 59.421875 260.335938 59.421875 C 262.003906 59.421875 263.515625 59.800781 264.878906 60.558594 L 355.363281 114.820312 C 358.699219 116.9375 360.363281 119.664062 360.363281 122.992188 " fill-opacity="1" fill-rule="nonzero"/></g><g fill="#e45814" fill-opacity="1"><g transform="translate(27.174898, 301.885807)"><g><path d="M 32.296875 -38.496094 C 32.296875 -41.410156 30.4375 -42.960938 27.027344 -42.960938 L 9.917969 -42.960938 C 6.507812 -42.960938 4.648438 -41.101562 4.710938 -37.691406 C 4.710938 -32.296875 4.773438 -26.90625 4.773438 -21.511719 C 4.773438 -16.117188 4.710938 -10.726562 4.710938 -5.269531 C 4.648438 -1.859375 6.507812 0 9.917969 0 L 11.035156 0 C 14.445312 0 16.304688 -1.859375 16.242188 -5.269531 C 16.242188 -9.050781 16.242188 -12.769531 16.242188 -16.488281 C 19.09375 -16.429688 21.945312 -16.429688 24.671875 -16.367188 C 28.082031 -16.367188 29.941406 -17.855469 29.941406 -20.582031 C 29.941406 -23.246094 28.082031 -24.734375 24.671875 -24.734375 C 21.945312 -24.671875 19.09375 -24.671875 16.242188 -24.609375 L 16.242188 -34.097656 C 19.898438 -34.035156 23.679688 -34.035156 27.027344 -33.972656 C 30.4375 -33.972656 32.296875 -35.582031 32.296875 -38.496094 Z M 32.296875 -38.496094 "/></g></g></g><g fill="#e45814" fill-opacity="1"><g transform="translate(62.008622, 301.885807)"><g><path d="M 21.324219 0.621094 C 33.476562 0.621094 39.488281 -6.757812 39.488281 -21.511719 C 39.488281 -36.203125 33.476562 -43.582031 21.324219 -43.582031 C 9.175781 -43.582031 3.101562 -36.203125 3.101562 -21.511719 C 3.101562 -6.757812 9.175781 0.621094 21.324219 0.621094 Z M 21.324219 -7.75 C 16.429688 -7.75 14.941406 -10.972656 14.941406 -21.511719 C 14.941406 -31.988281 16.429688 -35.210938 21.324219 -35.210938 C 26.222656 -35.210938 27.648438 -31.988281 27.648438 -21.511719 C 27.648438 -10.972656 26.222656 -7.75 21.324219 -7.75 Z M 21.324219 -7.75 "/></g></g></g><g fill="#e45814" fill-opacity="1"><g transform="translate(104.652058, 301.885807)"><g><path d="M 21.324219 0.621094 C 33.476562 0.621094 39.488281 -6.757812 39.488281 -21.511719 C 39.488281 -36.203125 33.476562 -43.582031 21.324219 -43.582031 C 9.175781 -43.582031 3.101562 -36.203125 3.101562 -21.511719 C 3.101562 -6.757812 9.175781 0.621094 21.324219 0.621094 Z M 21.324219 -7.75 C 16.429688 -7.75 14.941406 -10.972656 14.941406 -21.511719 C 14.941406 -31.988281 16.429688 -35.210938 21.324219 -35.210938 C 26.222656 -35.210938 27.648438 -31.988281 27.648438 -21.511719 C 27.648438 -10.972656 26.222656 -7.75 21.324219 -7.75 Z M 21.324219 -7.75 "/></g></g></g><g fill="#e45814" fill-opacity="1"><g transform="translate(147.295495, 301.885807)"><g><path d="M 18.785156 0.0625 C 32.855469 0 38.683594 -7.003906 38.683594 -22.070312 C 38.683594 -37.195312 32.855469 -42.960938 18.785156 -42.960938 L 10.042969 -42.960938 C 6.632812 -42.960938 4.773438 -41.039062 4.773438 -37.445312 C 4.773438 -18.660156 4.710938 -10.785156 4.648438 -5.144531 C 4.648438 -1.796875 6.507812 0 9.917969 0 Z M 16.304688 -8.554688 C 16.242188 -10.664062 16.242188 -12.957031 16.242188 -15.1875 C 16.242188 -25.789062 16.242188 -30.128906 16.304688 -34.40625 L 18.535156 -34.40625 C 25.230469 -34.40625 27.214844 -30.996094 27.214844 -21.511719 C 27.214844 -13.203125 24.984375 -8.554688 18.535156 -8.554688 Z M 16.304688 -8.554688 "/></g></g></g><g fill="#04383f" fill-opacity="1"><g transform="translate(189.049498, 301.885807)"><g><path d="M 20.890625 0.621094 C 29.757812 0.621094 35.335938 -2.851562 36.574219 -10.414062 C 37.195312 -14.011719 34.902344 -15.996094 31.492188 -15.996094 L 31.429688 -15.996094 C 28.207031 -15.996094 26.90625 -14.257812 25.851562 -10.972656 C 25.105469 -8.742188 23.621094 -7.933594 20.953125 -7.933594 C 17.421875 -7.933594 14.941406 -10.539062 14.941406 -21.511719 C 14.941406 -31.617188 16.675781 -35.210938 20.953125 -35.210938 C 24.113281 -35.210938 25.601562 -33.972656 26.097656 -30.75 C 26.59375 -27.214844 27.898438 -25.292969 31.304688 -25.292969 L 31.679688 -25.292969 C 35.027344 -25.292969 37.320312 -27.089844 37.007812 -30.5625 C 36.265625 -38.992188 30.5 -43.582031 21.324219 -43.582031 C 9.113281 -43.582031 3.039062 -36.203125 3.039062 -21.511719 C 3.039062 -6.757812 8.554688 0.621094 20.890625 0.621094 Z M 20.890625 0.621094 "/></g></g></g><g fill="#04383f" fill-opacity="1"><g transform="translate(228.407897, 301.885807)"><g><path d="M 21.324219 0.621094 C 33.476562 0.621094 39.488281 -6.757812 39.488281 -21.511719 C 39.488281 -36.203125 33.476562 -43.582031 21.324219 -43.582031 C 9.175781 -43.582031 3.101562 -36.203125 3.101562 -21.511719 C 3.101562 -6.757812 9.175781 0.621094 21.324219 0.621094 Z M 21.324219 -7.75 C 16.429688 -7.75 14.941406 -10.972656 14.941406 -21.511719 C 14.941406 -31.988281 16.429688 -35.210938 21.324219 -35.210938 C 26.222656 -35.210938 27.648438 -31.988281 27.648438 -21.511719 C 27.648438 -10.972656 26.222656 -7.75 21.324219 -7.75 Z M 21.324219 -7.75 "/></g></g></g><g fill="#04383f" fill-opacity="1"><g transform="translate(271.051333, 301.885807)"><g><path d="M 18.785156 0.0625 C 32.855469 0 38.683594 -7.003906 38.683594 -22.070312 C 38.683594 -37.195312 32.855469 -42.960938 18.785156 -42.960938 L 10.042969 -42.960938 C 6.632812 -42.960938 4.773438 -41.039062 4.773438 -37.445312 C 4.773438 -18.660156 4.710938 -10.785156 4.648438 -5.144531 C 4.648438 -1.796875 6.507812 0 9.917969 0 Z M 16.304688 -8.554688 C 16.242188 -10.664062 16.242188 -12.957031 16.242188 -15.1875 C 16.242188 -25.789062 16.242188 -30.128906 16.304688 -34.40625 L 18.535156 -34.40625 C 25.230469 -34.40625 27.214844 -30.996094 27.214844 -21.511719 C 27.214844 -13.203125 24.984375 -8.554688 18.535156 -8.554688 Z M 16.304688 -8.554688 "/></g></g></g><g fill="#04383f" fill-opacity="1"><g transform="translate(312.827021, 301.885807)"><g><path d="M 16.242188 -8.246094 L 16.242188 -17.109375 C 18.847656 -17.046875 21.449219 -17.046875 23.929688 -16.984375 C 27.339844 -16.984375 29.199219 -18.472656 29.199219 -21.203125 C 29.199219 -23.867188 27.339844 -25.355469 23.929688 -25.355469 C 21.449219 -25.292969 18.847656 -25.292969 16.242188 -25.230469 L 16.242188 -34.714844 C 19.652344 -34.652344 23.125 -34.652344 26.410156 -34.59375 C 29.820312 -34.59375 31.679688 -36.078125 31.679688 -38.808594 C 31.679688 -41.472656 29.820312 -42.960938 26.410156 -42.960938 L 9.917969 -42.960938 C 6.507812 -42.960938 4.648438 -41.101562 4.710938 -37.691406 C 4.710938 -32.296875 4.773438 -26.90625 4.773438 -21.511719 C 4.773438 -16.117188 4.710938 -10.726562 4.710938 -5.269531 C 4.648438 -1.859375 6.507812 0 9.917969 0 L 27.027344 0 C 30.4375 0 32.296875 -1.488281 32.296875 -4.214844 C 32.296875 -6.882812 30.4375 -8.367188 27.027344 -8.367188 C 23.558594 -8.308594 19.898438 -8.308594 16.242188 -8.246094 Z M 16.242188 -8.246094 "/></g></g></g><g fill="#737373" fill-opacity="1"><g transform="translate(94.622761, 335.254051)"><g><path d="M 4.453125 -15.296875 C 5.648438 -15.296875 6.53125 -14.957031 7.09375 -14.28125 C 7.65625 -13.601562 7.9375 -12.675781 7.9375 -11.5 L 7.9375 -3.78125 C 7.9375 -2.601562 7.65625 -1.675781 7.09375 -1 C 6.53125 -0.332031 5.648438 0 4.453125 0 L 0.875 0 L 0.875 -15.296875 Z M 4.4375 -1.546875 C 5.050781 -1.546875 5.503906 -1.734375 5.796875 -2.109375 C 6.097656 -2.484375 6.25 -3.019531 6.25 -3.71875 L 6.25 -11.578125 C 6.25 -12.285156 6.097656 -12.820312 5.796875 -13.1875 C 5.503906 -13.5625 5.046875 -13.75 4.421875 -13.75 L 2.578125 -13.75 L 2.578125 -1.546875 Z M 4.4375 -1.546875 "/></g></g></g><g fill="#737373" fill-opacity="1"><g transform="translate(112.027002, 335.254051)"><g><path d="M 6.3125 -8.53125 L 6.3125 -7 L 2.578125 -7 L 2.578125 -1.546875 L 7.171875 -1.546875 L 7.171875 0 L 0.875 0 L 0.875 -15.296875 L 7.171875 -15.296875 L 7.171875 -13.75 L 2.578125 -13.75 L 2.578125 -8.53125 Z M 6.3125 -8.53125 "/></g></g></g><g fill="#737373" fill-opacity="1"><g transform="translate(128.644413, 335.254051)"><g><path d="M 2.171875 -15.296875 L 4.65625 -1.984375 L 7.125 -15.296875 L 8.703125 -15.296875 L 5.84375 0 L 3.328125 0 L 0.4375 -15.296875 Z M 2.171875 -15.296875 "/></g></g></g><g fill="#737373" fill-opacity="1"><g transform="translate(146.529515, 335.254051)"><g><path d="M 6.3125 -8.53125 L 6.3125 -7 L 2.578125 -7 L 2.578125 -1.546875 L 7.171875 -1.546875 L 7.171875 0 L 0.875 0 L 0.875 -15.296875 L 7.171875 -15.296875 L 7.171875 -13.75 L 2.578125 -13.75 L 2.578125 -8.53125 Z M 6.3125 -8.53125 "/></g></g></g><g fill="#737373" fill-opacity="1"><g transform="translate(163.146928, 335.254051)"><g><path d="M 0.875 0 L 0.875 -15.296875 L 2.578125 -15.296875 L 2.578125 -1.546875 L 6.953125 -1.546875 L 6.953125 0 Z M 0.875 0 "/></g></g></g><g fill="#737373" fill-opacity="1"><g transform="translate(179.261633, 335.254051)"><g><path d="M 0.75 -11.609375 C 0.75 -12.785156 1.035156 -13.71875 1.609375 -14.40625 C 2.179688 -15.101562 3.054688 -15.453125 4.234375 -15.453125 C 5.421875 -15.453125 6.304688 -15.101562 6.890625 -14.40625 C 7.472656 -13.71875 7.765625 -12.785156 7.765625 -11.609375 L 7.765625 -3.6875 C 7.765625 -2.53125 7.472656 -1.597656 6.890625 -0.890625 C 6.304688 -0.191406 5.421875 0.15625 4.234375 0.15625 C 3.054688 0.15625 2.179688 -0.191406 1.609375 -0.890625 C 1.035156 -1.597656 0.75 -2.53125 0.75 -3.6875 Z M 2.421875 -3.609375 C 2.421875 -2.910156 2.570312 -2.367188 2.875 -1.984375 C 3.175781 -1.597656 3.628906 -1.40625 4.234375 -1.40625 C 4.867188 -1.40625 5.332031 -1.597656 5.625 -1.984375 C 5.914062 -2.367188 6.0625 -2.910156 6.0625 -3.609375 L 6.0625 -11.6875 C 6.0625 -12.394531 5.914062 -12.941406 5.625 -13.328125 C 5.332031 -13.710938 4.867188 -13.90625 4.234375 -13.90625 C 3.628906 -13.90625 3.175781 -13.710938 2.875 -13.328125 C 2.570312 -12.941406 2.421875 -12.394531 2.421875 -11.6875 Z M 2.421875 -3.609375 "/></g></g></g><g fill="#737373" fill-opacity="1"><g transform="translate(196.512894, 335.254051)"><g><path d="M 4.21875 -15.296875 C 5.425781 -15.296875 6.300781 -14.960938 6.84375 -14.296875 C 7.382812 -13.640625 7.65625 -12.726562 7.65625 -11.5625 L 7.65625 -9.734375 C 7.65625 -8.503906 7.363281 -7.578125 6.78125 -6.953125 C 6.207031 -6.335938 5.3125 -6.03125 4.09375 -6.03125 L 2.578125 -6.03125 L 2.578125 0 L 0.875 0 L 0.875 -15.296875 Z M 4.09375 -7.5625 C 4.726562 -7.5625 5.195312 -7.71875 5.5 -8.03125 C 5.8125 -8.34375 5.96875 -8.875 5.96875 -9.625 L 5.96875 -11.65625 C 5.96875 -12.351562 5.832031 -12.875 5.5625 -13.21875 C 5.289062 -13.570312 4.84375 -13.75 4.21875 -13.75 L 2.578125 -13.75 L 2.578125 -7.5625 Z M 4.09375 -7.5625 "/></g></g></g><g fill="#737373" fill-opacity="1"><g transform="translate(213.370716, 335.254051)"><g><path d="M 6.515625 -0.015625 L 4.875 -0.015625 L 2.34375 -12.203125 L 2.34375 0 L 0.859375 0 L 0.859375 -15.296875 L 3.234375 -15.296875 L 5.75 -3.078125 L 8.171875 -15.296875 L 10.5625 -15.296875 L 10.5625 0 L 8.9375 0 L 8.9375 -12.3125 Z M 6.515625 -0.015625 "/></g></g></g><g fill="#737373" fill-opacity="1"><g transform="translate(233.550781, 335.254051)"><g><path d="M 6.3125 -8.53125 L 6.3125 -7 L 2.578125 -7 L 2.578125 -1.546875 L 7.171875 -1.546875 L 7.171875 0 L 0.875 0 L 0.875 -15.296875 L 7.171875 -15.296875 L 7.171875 -13.75 L 2.578125 -13.75 L 2.578125 -8.53125 Z M 6.3125 -8.53125 "/></g></g></g><g fill="#737373" fill-opacity="1"><g transform="translate(250.168195, 335.254051)"><g><path d="M 2.375 0 L 0.859375 0 L 0.859375 -15.296875 L 3.015625 -15.296875 L 6.5625 -4.234375 L 6.5625 -15.296875 L 8.0625 -15.296875 L 8.0625 0 L 6.296875 0 L 2.375 -12.375 Z M 2.375 0 "/></g></g></g><g fill="#737373" fill-opacity="1"><g transform="translate(267.856583, 335.254051)"><g><path d="M 3.078125 0 L 3.078125 -13.75 L 0.265625 -13.75 L 0.265625 -15.296875 L 7.578125 -15.296875 L 7.578125 -13.75 L 4.765625 -13.75 L 4.765625 0 Z M 3.078125 0 "/></g></g></g><g fill="#737373" fill-opacity="1"><g transform="translate(284.459001, 335.254051)"><g/></g></g></svg>