<?xml version="1.0" encoding="UTF-8"?><svg xmlns="http://www.w3.org/2000/svg" width="28.547" height="29.294" viewBox="0 0 28.547 29.294"><defs><style>.a,.e{fill:#272b40;}.af,.ap,.ar,.at,.ax,.b,.e,.j,.p,.z{opacity:0.3;}.ad,.aj,.ap,.aq,.at,.aw,.b,.c,.e,.f,.j,.p,.q,.s,.t,.u,.w,.x{mix-blend-mode:multiply;}.ad,.ai,.aj,.ak,.ap,.aq,.at,.av,.aw,.ax,.az,.b,.c,.e,.f,.j,.k,.p,.q,.s,.t,.u,.w,.x,.z{isolation:isolate;}.aw,.c,.w{opacity:0.2;}.d{fill:#afb3ad;}.ai,.ak,.av,.az,.f,.k,.s,.u,.x{opacity:0.5;}.g{fill:#ff2424;}.aj,.aq,.ax,.h,.k,.p,.t,.u{fill:#f98a10;}.i,.j{fill:#ea7706;}.ai,.ak,.av,.ax,.az,.k,.z{mix-blend-mode:screen;}.l{fill:#f4ab7a;}.m{fill:#1c1e26;}.n{fill:#e23737;}.ak,.o,.x{fill:#ffc299;}.r{fill:#e5e8e5;}.s{fill:#ccc;}.t{opacity:0.4;}.v,.w{fill:#742f19;}.y{fill:#dcf6f7;}.aa{fill:#121419;}.ab,.ar{fill:#fff;}.ac,.ad{fill:#fff599;}.ae{fill:#1d1d1b;}.af{fill:#f94646;}.ag{fill:#1e212d;}.ah{fill:#282623;}.aj{opacity:0.25;}.al{fill:#fffdfd;}.am{fill:#aacde2;}.an{fill:#494746;}.ao,.ap{fill:#6b6865;}.aq{opacity:0.1;}.as,.at,.av,.aw{fill:#e8790a;}.au{fill:#3a3a3a;}.ay,.az{fill:#202433;}</style></defs><g transform="translate(-187.485 -214.27)"><g transform="translate(187.485 214.27)"><g transform="translate(5.909 21.056)"><circle class="a" cx="2.913" cy="2.913" r="2.913" transform="translate(0 4.119) rotate(-45)"/><g class="b" transform="translate(0 0)"><circle class="a" cx="2.913" cy="2.913" r="2.913" transform="translate(0 4.119) rotate(-45)"/></g><circle class="a" cx="2.542" cy="2.542" r="2.542" transform="translate(0.524 4.119) rotate(-45)"/><g class="c" transform="translate(1.748 1.748)"><circle class="a" cx="1.815" cy="1.815" r="1.815" transform="translate(0 3.353) rotate(-67.5)"/></g><circle class="d" cx="1.619" cy="1.619" r="1.619" transform="translate(1.83 4.119) rotate(-45)"/></g><path class="a" d="M187.784,505.831h0a.3.3,0,0,1-.3-.3v-.82a.3.3,0,0,1,.3-.3h0a.3.3,0,0,1,.3.3v.82A.3.3,0,0,1,187.784,505.831Z" transform="translate(-187.485 -490.94)"/><path class="a" d="M228.489,621.753l-3.929-2.681a.23.23,0,0,1-.06-.32h0a.23.23,0,0,1,.32-.06l3.929,2.681a.23.23,0,0,1,.06.32h0A.23.23,0,0,1,228.489,621.753Z" transform="translate(-222.743 -599.875)"/><path class="e" d="M228.814,621.639l-3.929-2.681a.23.23,0,0,1-.084-.276.23.23,0,0,0-.241.391l3.929,2.681a.23.23,0,0,0,.32-.06h0a.233.233,0,0,0,.023-.044Z" transform="translate(-222.743 -599.877)"/><path class="a" d="M204.84,614.515H196.7a.314.314,0,0,1-.314-.313h0a.314.314,0,0,1,.314-.314h8.143a.314.314,0,0,1,.314.314h0A.314.314,0,0,1,204.84,614.515Z" transform="translate(-195.97 -595.332)"/><g class="f" transform="translate(0.413 18.706)"><path class="a" d="M204.84,617.285H196.7a.313.313,0,0,1-.268-.151.313.313,0,0,0,.268.476h8.143a.313.313,0,0,0,.268-.476A.313.313,0,0,1,204.84,617.285Z" transform="translate(-196.383 -617.134)"/></g><path class="g" d="M312.4,645.374h0a.324.324,0,0,1-.085-.45l.458-.671a.324.324,0,0,1,.45-.085h0a.324.324,0,0,1,.085.45l-.458.671A.324.324,0,0,1,312.4,645.374Z" transform="translate(-306.467 -624.153)"/><path class="h" d="M486.035,729.477h-6.684a.762.762,0,0,1-.762-.762h0a.762.762,0,0,1,.762-.762h6.684a.762.762,0,0,1,.762.762h0A.762.762,0,0,1,486.035,729.477Z" transform="translate(-465.073 -704.102)"/><g transform="translate(21.476 10.664)"><path class="a" d="M651.278,447.275a.03.03,0,0,1-.029-.028,11.307,11.307,0,0,0-.52-2.851c-.131-.257-.269-.392-.411-.4a.339.339,0,0,0-.267.138A.03.03,0,1,1,650,444.1a.4.4,0,0,1,.319-.162c.164.013.318.159.459.435a11.082,11.082,0,0,1,.527,2.874.03.03,0,0,1-.028.031Z" transform="translate(-649.996 -443.933)"/></g><g transform="translate(20.758 9.738)"><ellipse class="i" cx="0.425" cy="1.096" rx="0.425" ry="1.096" transform="translate(0 0.203) rotate(-13.818)"/><path class="j" d="M643.441,429.426a2.646,2.646,0,0,1,.138.413c.145.588.077,1.109-.151,1.165-.092.023-.2-.035-.3-.151.156.362.367.591.537.549.228-.056.3-.578.151-1.165A2.006,2.006,0,0,0,643.441,429.426Z" transform="translate(-642.73 -429.174)"/><path class="k" d="M641.179,434.946c.067.274.079.506.025.519s-.151-.2-.218-.472-.079-.506-.026-.519S641.111,434.672,641.179,434.946Z" transform="translate(-640.63 -433.987)"/></g><path class="l" d="M630.234,476.21a2.071,2.071,0,0,1,1.829-.286c.91.382,1.022.811.929,1.354s-2.328.309-2.328.309Z" transform="translate(-609.676 -463.663)"/><path class="m" d="M493.3,453.511a.117.117,0,0,1-.068.125c-3.244,1.475-5.328.493-7.261-1.19a1.034,1.034,0,0,1-.034-1.481l.026-.026a.878.878,0,0,1,1.225-.046,5.017,5.017,0,0,0,5.432,1.028.116.116,0,0,1,.156.075A15.456,15.456,0,0,1,493.3,453.511Z" transform="translate(-471.799 -439.691)"/><path class="n" d="M507.859,374.468a.794.794,0,0,1,0-1.193c.643-.569,1.564.083,1.735-.294s-1.68-2.207-3.241-1.149-.042,3.5.716,3.151S507.946,375.033,507.859,374.468Z" transform="translate(-490.9 -364.206)"/><rect class="l" width="1.432" height="1.697" transform="translate(18.171 21.56)"/><path class="m" d="M572.048,697.03a.484.484,0,0,0-.467-.358h-1.166a.484.484,0,0,0-.484.484v.51c0,.016,0,.032,0,.047a.418.418,0,0,0,0,.044.414.414,0,0,0,.414.414h2.167a.414.414,0,0,0,.414-.414V697.7C572.925,697.283,572.36,697.159,572.048,697.03Z" transform="translate(-552.173 -674.273)"/><g class="b" transform="translate(17.758 22.399)"><path class="m" d="M572.048,697.03a.484.484,0,0,0-.467-.358h-1.166a.484.484,0,0,0-.484.484v.51c0,.016,0,.032,0,.047a.418.418,0,0,0,0,.044.414.414,0,0,0,.414.414h2.167a.414.414,0,0,0,.414-.414V697.7C572.925,697.283,572.36,697.159,572.048,697.03Z" transform="translate(-569.931 -696.672)"/></g><rect class="o" width="1.432" height="1.697" transform="translate(17.51 21.96)"/><path class="h" d="M305.951,588.352c-4.393,0-6.582,2.517-7.476,5.813a.842.842,0,0,0,.67,1.124h10.265c.4,0,.781.027.768-.455C310.086,591.42,309.294,588.352,305.951,588.352Z" transform="translate(-293.288 -570.982)"/><g class="b" transform="translate(5.152 19.659)"><path class="h" d="M308.577,642.848c-.036,0-.073,0-.11,0h-.255c-1.115-.063-.941-1-.941-1l-2.055-3.5a6.966,6.966,0,0,0-4.04.555c-1.966.973-1.556,2.269-2.111,1.906s1.2-3.131,1.211-3.149a8.68,8.68,0,0,0-1.8,3.524.842.842,0,0,0,.67,1.124h7.723a.758.758,0,0,0-.065.307h0a.758.758,0,0,0,.077.333l.008.017c.006.012.013.025.021.037l.012.021.022.033.015.021.024.031.018.02c.014.016.03.031.045.046l.025.023.025.02.028.021.026.018.033.02.024.014.056.027.014.005.053.019.023.007.045.012.025.005.048.007.022,0c.023,0,.047,0,.071,0h6.684a.762.762,0,0,0,.724-.525Z" transform="translate(-298.44 -637.657)"/></g><path class="p" d="M358.095,588.352a7.489,7.489,0,0,0-4.973,1.607c0,.032.092.847,2.253.636,2.205-.216,3.291-.43,4.226.035a1.85,1.85,0,0,0,1.995.037A3.532,3.532,0,0,0,358.095,588.352Z" transform="translate(-345.431 -570.982)"/><path class="k" d="M463.515,595.23a.746.746,0,0,1-.03-.366h-3.758a.449.449,0,0,1,0,.061c0-.02,0-.04,0-.061-.093-3.38-.87-6.419-4.127-6.481-.522.55-.552,1.087.855,1.25,3.307.382,3.139,5.384,3.139,5.384Z" transform="translate(-442.835 -571.012)"/><circle class="d" cx="1.619" cy="1.619" r="1.619" transform="translate(7.761 25.175) rotate(-45)"/><g class="q" transform="translate(8.843 23.968)"><circle class="d" cx="0.924" cy="0.924" r="0.924" transform="translate(0 1.707) rotate(-67.5)"/></g><circle class="a" cx="2.913" cy="2.913" r="2.913" transform="translate(20.309 25.175) rotate(-45)"/><g class="b" transform="translate(20.309 21.056)"><circle class="a" cx="2.913" cy="2.913" r="2.913" transform="translate(0 4.119) rotate(-45)"/></g><circle class="a" cx="2.542" cy="2.542" r="2.542" transform="translate(21.37 23.286) rotate(-13.283)"/><g class="c" transform="translate(22.245 22.992)"><circle class="a" cx="1.815" cy="1.815" r="1.815" transform="translate(0 0.834) rotate(-13.283)"/></g><circle class="d" cx="1.619" cy="1.619" r="1.619" transform="translate(22.571 23.837) rotate(-9.217)"/><g class="q" transform="translate(23.228 23.975)"><circle class="d" cx="0.918" cy="0.918" r="0.918" transform="translate(0 1.697) rotate(-67.5)"/></g><path class="r" d="M682.528,680.352l-.78-3.056a.668.668,0,0,1,.482-.812h0a.668.668,0,0,1,.812.482l.78,3.056a.668.668,0,0,1-.482.812h0A.668.668,0,0,1,682.528,680.352Z" transform="translate(-658.778 -655.002)"/><path class="r" d="M389.043,678.484l.13-3.152a.668.668,0,0,1,.695-.64h0a.668.668,0,0,1,.64.695l-.13,3.152a.668.668,0,0,1-.695.64h0A.668.668,0,0,1,389.043,678.484Z" transform="translate(-379.684 -653.314)"/><path class="s" d="M683.143,687.041l-.093-.366c0-.008,0-.016-.007-.024a6.588,6.588,0,0,0-.92.02c-.138.017-.265.036-.377.056a.664.664,0,0,0,.011.279l.1.4A2.457,2.457,0,0,1,683.143,687.041Z" transform="translate(-658.785 -664.711)"/><g transform="translate(6.106 20.056)"><path class="h" d="M324.052,646.212a4.842,4.842,0,0,0-5.05,3.927.569.569,0,0,0,.453.759h6.934a.538.538,0,0,0,.477-.6C326.8,648,326.31,646.212,324.052,646.212Z" transform="translate(-318.978 -646.212)"/><path class="t" d="M324.052,646.212a4.842,4.842,0,0,0-5.05,3.927.569.569,0,0,0,.453.759h6.934a.538.538,0,0,0,.477-.6C326.8,648,326.31,646.212,324.052,646.212Z" transform="translate(-318.978 -646.212)"/><path class="p" d="M325.615,655.45a3.44,3.44,0,0,1,0,3.261c-.6,1-6.293.409-6.4-.435q-.123.327-.217.672a.569.569,0,0,0,.453.759h6.934a.538.538,0,0,0,.477-.6C326.821,657.48,326.561,656.112,325.615,655.45Z" transform="translate(-318.978 -655.021)"/></g><path class="p" d="M313.63,652.868a4.813,4.813,0,0,1,3.708-3.794,4.8,4.8,0,0,0-3.97,3.843.692.692,0,0,0-.018.274h.271A.69.69,0,0,1,313.63,652.868Z" transform="translate(-307.5 -628.885)"/><path class="m" d="M447.909,566.259s4.673-.451,4.156,5.609h-1.835s.91-3.783-1.879-3.93-4.551.037-4.441-.845S447.909,566.259,447.909,566.259Z" transform="translate(-431.999 -549.908)"/><path class="h" d="M645.141,484.19s-.937-3.5,1.821-4.272l.79,2.61s-.661.588-.173,2.24S645.521,486.623,645.141,484.19Z" transform="translate(-623.744 -467.583)"/><path class="u" d="M648.515,549.989c-.586-.789-1.568-1.1-2.036-.809a.913.913,0,0,0-.348.414,4.8,4.8,0,0,0,.1.537c.38,2.433,2.926,2.231,2.438.579A4.5,4.5,0,0,1,648.515,549.989Z" transform="translate(-624.835 -533.525)"/><path class="u" d="M669.173,479.979a2.386,2.386,0,0,0,.635,3.814,1.6,1.6,0,0,1,.349-1.265l-.79-2.61C669.3,479.937,669.236,479.957,669.173,479.979Z" transform="translate(-646.15 -467.583)"/><path class="v" d="M359.017,575.72a1.793,1.793,0,0,0-1.5.828c-.736,1.255,1.342,1.641,2.179,1.59a10.551,10.551,0,0,1,3.635.1c.672.191,1.455.792,2.162.4.484-.266.256-1.157-.039-1.491a4.058,4.058,0,0,0-2.392-1.216,14,14,0,0,0-3.776-.238C359.2,575.7,359.108,575.71,359.017,575.72Z" transform="translate(-349.479 -558.877)"/><path class="w" d="M363.068,575.932a14.008,14.008,0,0,0-3.776-.238c-.093.007-.185.016-.275.026a2.291,2.291,0,0,0-1.03.327c.747-.338,1.015-.487,1.583.367s2.516,1.281,1.577,1.184-2.118.358-3.013-.055a.839.839,0,0,1-.478-1.191,1.663,1.663,0,0,0-.135.2c-.736,1.255,1.342,1.641,2.179,1.59a10.551,10.551,0,0,1,3.635.1c.672.191,1.455.792,2.162.4.484-.266.256-1.157-.039-1.491A4.058,4.058,0,0,0,363.068,575.932Zm2.229,2.534a3.777,3.777,0,0,1-1.973-.551c-.21-.276,1.415-.276,1.415-.276s.551-.014.647.351S365.3,578.465,365.3,578.465Z" transform="translate(-349.479 -558.876)"/><path class="a" d="M424.623,569.194s4.3-.779,3.78,5.28h-1.852s.26-3.829-2.826-3.415c-2.768.371-3.841-.717-3.731-1.6S424.623,569.194,424.623,569.194Z" transform="translate(-409.191 -552.515)"/><path class="e" d="M424.623,569.194s-4.519-.615-4.629.266.963,1.969,3.731,1.6c3.086-.413,2.826,3.415,2.826,3.415h.437a1.392,1.392,0,0,0,.089-.4,4.285,4.285,0,0,0-1.147-3.129c-.771-.726-1.9-.132-2.148-.646S424.623,569.194,424.623,569.194Z" transform="translate(-409.191 -552.515)"/><path class="h" d="M417.609,435.847a3.752,3.752,0,0,0-1.168.625c-1.386,1.183-1.314,2.885-1.234,4.678.184,4.16,3.429.716,4.824.937s-.184-.808-.184-1.4.022-2.538.12-3.959C420.044,435.617,418.543,435.533,417.609,435.847Z" transform="translate(-404.599 -425.407)"/><path class="p" d="M458.308,441.787c-.195-.309-.68-.77-.68-1.1,0-.588.022-2.538.12-3.959.077-1.116-1.425-1.2-2.358-.885a1.8,1.8,0,0,0,.3.464c.22.257.005.409-.3.725a1.526,1.526,0,0,0-.268,2.123c.747,1,.141,2.945.94,2.7s1.262-.388,1.588-.139C457.929,441.931,458.251,442.054,458.308,441.787Z" transform="translate(-442.38 -425.407)"/><path class="o" d="M474.244,435.584a2.2,2.2,0,0,0,.81,1.083c1.007.6,1.066.276,1.05-.173S474.726,435.308,474.244,435.584Z" transform="translate(-460.929 -425.251)"/><path class="x" d="M474.244,435.584a2.2,2.2,0,0,0,.81,1.083c1.007.6,1.066.276,1.05-.173S474.726,435.308,474.244,435.584Z" transform="translate(-460.929 -425.251)"/><path class="y" d="M540.372,373.223a.559.559,0,0,1-.551.454c-.308,0-2.045-1.3-2.038-1.722s1.143-.179,1.777.262A2.164,2.164,0,0,1,540.372,373.223Z" transform="translate(-521.517 -364.425)"/><path class="y" d="M518.682,399.542s.3-.207.289-.441-.234-.344-.812-.578-1.487-.771-1.529-1.212-.744,1.1.276,1.639S518.431,399.816,518.682,399.542Z" transform="translate(-501.085 -388.737)"/><path class="o" d="M447.956,269.461a9.507,9.507,0,0,1-.252,1.839,2.963,2.963,0,0,1-.684,1.265.3.3,0,0,1-.176.1c-.18.014-.338-.29-.444-.413a4.3,4.3,0,0,0-.472-.477,1.628,1.628,0,0,0-1.291-.468,1.222,1.222,0,0,0-1.06,1.488c.055.605.95,1.1,1.611,1.17s1.04-.082.762.261a3.107,3.107,0,0,1-3.113.438c-2.249-.856-3.1-2.436-3.1-4.842a3.657,3.657,0,0,1,3.931-3.922C446.078,265.9,448.131,267.061,447.956,269.461Z" transform="translate(-428.028 -263.504)"/><g class="z" transform="translate(13.315 2.397)"><path class="o" d="M476.572,265.9a4.231,4.231,0,0,0-2.328.625,4.353,4.353,0,0,1,2.115-.5c2.407,0,4.459,1.16,4.284,3.56a9.512,9.512,0,0,1-.252,1.839,3.006,3.006,0,0,1-.658,1.238h.012a.3.3,0,0,0,.176-.1,2.962,2.962,0,0,0,.684-1.265,9.51,9.51,0,0,0,.252-1.839C481.032,267.061,478.979,265.9,476.572,265.9Z" transform="translate(-474.244 -265.901)"/></g><rect class="aa" width="2.176" height="0.964" rx="0.482" transform="translate(18.167 21.12)"/><g transform="translate(22.625 11.397)"><path class="ab" d="M705.847,470.291v4.072a2.036,2.036,0,1,0,0-4.072Z" transform="translate(-704.403 -469.8)"/><path class="ac" d="M714.067,470.291v4.072a2.036,2.036,0,0,0,0-4.072Z" transform="translate(-712.241 -469.8)"/><path class="ad" d="M726.852,472.19a2.2,2.2,0,0,1,0,3.9,2.036,2.036,0,0,0,0-3.9Z" transform="translate(-724.433 -471.611)"/><path class="h" d="M674.749,465.122a2.387,2.387,0,0,0,2.387,2.387v-4.773A2.387,2.387,0,0,0,674.749,465.122Z" transform="translate(-674.749 -462.595)"/><g class="b" transform="translate(0 2.075)"><path class="h" d="M674.792,504.412a2.386,2.386,0,0,0,2.343,2.838v-1.1A2.494,2.494,0,0,1,674.792,504.412Z" transform="translate(-674.749 -504.412)"/></g><path class="u" d="M717.25,462.839V467.4a.236.236,0,0,0,.014.068,2.388,2.388,0,0,0,.4.036v-4.773a2.385,2.385,0,0,0-.4.036A.237.237,0,0,0,717.25,462.839Z" transform="translate(-715.276 -462.595)"/><g transform="translate(2.09)"><path class="h" d="M720.012,464.771a.244.244,0,0,1-.244-.244v-4.565a.244.244,0,0,1,.488,0v4.565A.244.244,0,0,1,720.012,464.771Z" transform="translate(-719.768 -459.717)"/></g></g><path class="h" d="M640.691,554.385c-.566-.9-1.645-1.279-2.142-.965h0a1.572,1.572,0,0,0-.355,1.8,5.757,5.757,0,0,1-.589,4.981l4.18-.885A7.736,7.736,0,0,0,640.691,554.385Z" transform="translate(-616.704 -537.568)"/><circle class="a" cx="0.771" cy="0.771" r="0.771" transform="translate(21.117 13.49) rotate(-13.283)"/><circle class="o" cx="0.656" cy="0.656" r="0.656" transform="matrix(0.973, -0.23, 0.23, 0.973, 18.721, 7.794)"/><ellipse class="ae" cx="0.62" cy="0.467" rx="0.62" ry="0.467" transform="translate(17.853 7.597) rotate(-84.725)"/><path class="af" d="M543.109,363.224c-.049.126-.289.15-.537.054s-.41-.276-.362-.4.289-.15.537-.054S543.157,363.1,543.109,363.224Z" transform="translate(-525.73 -355.869)"/><path class="o" d="M606.05,484.294a2.071,2.071,0,0,1,1.754-.59c.961.223,1.478.74,1.145,1.178-.257.338-1.22.006-2.243.7Z" transform="translate(-586.615 -471.156)"/><rect class="ag" width="2.176" height="0.964" rx="0.482" transform="translate(17.193 21.12)"/><path class="ag" d="M560.78,697.03a.484.484,0,0,0-.467-.358h-1.166a.484.484,0,0,0-.484.484v.51c0,.016,0,.032,0,.047a.418.418,0,0,0,0,.044.414.414,0,0,0,.414.414h2.167a.414.414,0,0,0,.414-.414V697.7C561.657,697.283,561.092,697.159,560.78,697.03Z" transform="translate(-541.428 -674.273)"/><path class="ah" d="M417.929,236.757c.593.051.5-.9.234-1.418-.114-.227-.685-.348-.7-1.117a.764.764,0,0,1,1.277-.574c.552.459-.079,1.471.389,1.465s.744-.958.826-1.839a2.146,2.146,0,0,1,.8-1.4c2.317-.066,4.747-.167,4.747-.167.186-.052.366-.155.363-.374a3.212,3.212,0,0,0-.888-1.7,4.742,4.742,0,0,0-1.237-1.15,5.834,5.834,0,0,0-5.462-.1,3.988,3.988,0,0,0-1.78,1.543c-.757,1.279-.478,2.787-.537,4.194C415.958,234.117,415.656,236.563,417.929,236.757Z" transform="translate(-405.336 -227.124)"/><path class="ab" d="M586.364,357.7c0,.092-.041.167-.091.167s-.091-.075-.091-.167.041-.167.091-.167S586.364,357.6,586.364,357.7Z" transform="translate(-567.67 -350.877)"/><path class="a" d="M469.573,465.672a.117.117,0,0,1-.068.125c-3.244,1.474-5.328.493-7.261-1.19a1.034,1.034,0,0,1-.034-1.481l.026-.026a.878.878,0,0,1,1.225-.046,5.017,5.017,0,0,0,5.432,1.028.116.116,0,0,1,.156.075A15.491,15.491,0,0,1,469.573,465.672Z" transform="translate(-449.173 -451.287)"/><path class="k" d="M681.882,477.562c.051.067-.294.343-.517.787s-.27.875-.367.87-.207-.514.074-1.023S681.841,477.494,681.882,477.562Z" transform="translate(-657.984 -465.324)"/><path class="k" d="M704.927,472.3c0,.059-.093.106-.208.106s-.208-.048-.208-.106.093-.107.208-.107S704.927,472.238,704.927,472.3Z" transform="translate(-680.503 -460.214)"/><path class="ab" d="M734.576,489.732c0,.276-.113.5-.252.5s-.253-.224-.253-.5.113-.5.253-.5S734.576,489.456,734.576,489.732Z" transform="translate(-708.691 -476.465)"/><g transform="translate(22.728 10.269)"><path class="a" d="M677.236,438.959h-.011a.044.044,0,0,1-.032-.054,11.3,11.3,0,0,0,.388-2.866c-.043-.275-.132-.448-.257-.5a.326.326,0,0,0-.282.046.044.044,0,1,1-.052-.072.412.412,0,0,1,.368-.057c.157.065.261.256.311.568a11.093,11.093,0,0,1-.39,2.9A.044.044,0,0,1,677.236,438.959Z" transform="translate(-676.972 -435.432)"/></g><g transform="translate(22.131 8.588)"><ellipse class="h" cx="0.561" cy="1.446" rx="0.561" ry="1.446"/><path class="p" d="M665.954,405.41a3.488,3.488,0,0,1,.046.573c0,.8-.251,1.446-.561,1.446-.126,0-.241-.108-.335-.287.086.514.284.873.515.873.31,0,.561-.647.561-1.446A2.648,2.648,0,0,0,665.954,405.41Z" transform="translate(-665.058 -405.123)"/><path class="k" d="M668.745,409.981c0,.372-.059.673-.131.673s-.131-.3-.131-.673.059-.673.131-.673S668.745,409.609,668.745,409.981Z" transform="translate(-668.28 -408.84)"/></g><path class="a" d="M677.831,502.838a.273.273,0,1,0-.273.273A.273.273,0,0,0,677.831,502.838Z" transform="translate(-654.543 -489.179)"/><g class="b" transform="translate(20.901 17.425)"><path class="h" d="M641.785,593.87a7.707,7.707,0,0,0-.652-4.1c.014.047.693,2.3-.215,2.7s-2.165.53-2.121.239a6.2,6.2,0,0,0-.577-3.03.919.919,0,0,0-.085-.135c.017.076.036.152.059.227a5.757,5.757,0,0,1-.589,4.981Z" transform="translate(-637.605 -589.547)"/></g><path class="h" d="M638.583,664.6a.267.267,0,0,1-.3.056c-.275-.114-.42-.411-.6-.626a3,3,0,0,0-.489-.454,3.044,3.044,0,0,0-1.149-.522,2.952,2.952,0,0,0-1.2-.018,2.463,2.463,0,0,0-1.049.47,2.154,2.154,0,0,0-.686.945,2.4,2.4,0,0,0-.116.44l-.007.04a.009.009,0,0,1,0,0c0,.026-.007.052-.01.079-.07.449-.294.518-.324.525h0a1.449,1.449,0,0,1-.183.013c-.249,0-.463-.1-.549-.524a2.453,2.453,0,0,1,.821-2.317,4.575,4.575,0,0,1,4.282-.949,2.452,2.452,0,0,1,1.723,1.753,1.528,1.528,0,0,1,.013.7.846.846,0,0,1-.152.361Z" transform="translate(-611.234 -640.811)"/><g class="ai" transform="translate(22.816 15.999)"><path class="h" d="M680.6,561.887a14.769,14.769,0,0,0-.675-1.628c-.473-.833-1.112-1.341-1.059-1.412a2.539,2.539,0,0,1,1.3,1.269A2.69,2.69,0,0,1,680.6,561.887Z" transform="translate(-678.867 -558.839)"/></g><g class="ai" transform="translate(21.42 20.961)"><path class="h" d="M654.694,667.216a3.96,3.96,0,0,0-5.893,0,3.622,3.622,0,0,1,5.893,0Z" transform="translate(-648.795 -665.7)"/></g><g transform="translate(8.36 21.65)"><path class="h" d="M401.939,682.128h0a.3.3,0,0,1-.3-.3v-1.006a.3.3,0,0,1,.3-.3h0Z" transform="translate(-400.06 -680.531)"/><path class="h" d="M390.57,682.128h0a.3.3,0,0,1-.3-.3v-1.006a.3.3,0,0,1,.3-.3h0Z" transform="translate(-389.219 -680.531)"/><path class="h" d="M379.2,682.128h0a.3.3,0,0,1-.3-.3v-1.006a.3.3,0,0,1,.3-.3h0Z" transform="translate(-378.377 -680.531)"/><path class="h" d="M367.831,682.128h0a.3.3,0,0,1-.3-.3v-1.006a.3.3,0,0,1,.3-.3h0Z" transform="translate(-367.536 -680.531)"/></g><g class="z" transform="translate(6.988 20.347)"><path class="h" d="M343.136,652.814c-.048.183-1.538-.01-2.893.447a9.24,9.24,0,0,0-2.252,1.162,4.216,4.216,0,0,1,2.1-1.614C341.6,652.167,343.209,652.615,343.136,652.814Z" transform="translate(-337.988 -652.476)"/></g><g class="z" transform="translate(8.48 17.168)"><path class="v" d="M371.745,584.846a1,1,0,0,1-.314-.213c-.244-.269-.249-.7-.738-.608-.317.058-.7.478-.545.815s.645.419.95.477C372.255,585.537,372.737,585.339,371.745,584.846Z" transform="translate(-370.113 -584.013)"/></g><rect class="h" width="7.592" height="7.079" rx="3.539" transform="translate(0.296 11.464)"/><path class="aj" d="M201.416,463.9v4.077a.823.823,0,0,1-.823.823h-5.442a.823.823,0,0,1-.823-.823v-4.623a.881.881,0,0,0-.472.78v5.316a.881.881,0,0,0,.881.881h5.83a.881.881,0,0,0,.881-.881v-5.316A.881.881,0,0,0,201.416,463.9Z" transform="translate(-193.56 -451.786)"/><path class="e" d="M462.993,467.435a1.311,1.311,0,0,1-.59-1.612.953.953,0,0,0-.167.134l-.026.026a1.034,1.034,0,0,0,.034,1.481c1.933,1.683,4.017,2.664,7.261,1.19a.117.117,0,0,0,.068-.125,2.794,2.794,0,0,0-.119-.442C466.714,469.632,464,468.159,462.993,467.435Z" transform="translate(-449.173 -454.143)"/><path class="e" d="M559.4,696.672h-.251a.484.484,0,0,0-.484.484v.51c0,.016,0,.032,0,.047a.436.436,0,0,0,0,.044.414.414,0,0,0,.414.414h2.167a.414.414,0,0,0,.414-.414V697.7a.4.4,0,0,0-.039-.173.343.343,0,0,1-.32.4c-.432.056-1.23-.046-1.221-.349s-.78.046-.955-.367A.392.392,0,0,1,559.4,696.672Z" transform="translate(-541.428 -674.273)"/><g class="ai" transform="translate(14.929 0.234)"><path class="h" d="M513.928,221.375a7.159,7.159,0,0,0-4.934-1.923,4.743,4.743,0,0,1,4.934,1.923Z" transform="translate(-508.994 -219.31)"/></g><rect class="t" width="7.592" height="0.187" transform="translate(0.296 13.472)"/><path class="k" d="M215.509,465.366h-5.9a.129.129,0,0,1-.129-.128h0a.129.129,0,0,1,.129-.129h5.9a.129.129,0,0,1,.129.129h0A.128.128,0,0,1,215.509,465.366Z" transform="translate(-208.456 -453.462)"/><path class="x" d="M458.724,362.394c-.209-.215-.484-.149-.468-.1s.2.081.333.228a.555.555,0,0,1,.088.113.3.3,0,0,0-.075-.029c-.218-.051-.38.161-.35.193s.164-.051.307-.01a.39.39,0,0,1,.164.083.4.4,0,0,0,.072.058.034.034,0,0,0,.045-.02A.5.5,0,0,0,458.724,362.394Z" transform="translate(-445.677 -355.375)"/><path class="ak" d="M614.131,383.843c.058.1.06.208,0,.24s-.148-.023-.206-.124-.06-.208,0-.24S614.073,383.742,614.131,383.843Z" transform="translate(-594.085 -375.842)"/><path class="ah" d="M440.332,355.569s0,0,0,0,0,0,0,0a.013.013,0,0,0,0,0Z" transform="translate(-428.591 -349.007)"/><g transform="translate(23.942 22.377)"><path class="al" d="M703.8,698.933a.133.133,0,0,1-.13-.1l-.565-2.472a.133.133,0,1,1,.259-.059l.565,2.472a.133.133,0,0,1-.1.159A.131.131,0,0,1,703.8,698.933Z" transform="translate(-703.106 -696.195)"/></g><path class="ah" d="M483.739,284.908l-4.844-1.156a6.844,6.844,0,0,0-.939.144c-.361.1-1.3,1.228-1.348,1.3a1.844,1.844,0,0,0,.515.581c-.161.372-.247.839.31.874a2.428,2.428,0,0,0,1.458-.441,2.6,2.6,0,0,1,.682-.139c0,.224.1.491.574.575a3.5,3.5,0,0,0,2.04-.705s-.439.762.176.711a1.137,1.137,0,0,0,.686-.353C484.1,285.617,483.739,284.908,483.739,284.908Z" transform="translate(-463.181 -280.526)"/><path class="ab" d="M465.591,363.311a7.86,7.86,0,0,1-2.621-.07,26.491,26.491,0,0,0-3.679-1l.03.31c1.35.174,1.877,1.535,1.13,1.875s-1.926-.934-1.926-.934l-.276-.147c.626,2.058,2.634,2.749,3.792,3.236a2.35,2.35,0,0,0,1.836-.1,3.414,3.414,0,0,0,2.066-2.918C465.955,363.361,465.8,363.3,465.591,363.311Z" transform="translate(-445.678 -355.374)"/><g class="b" transform="translate(12.572 7.961)"><path class="am" d="M465.8,385.719a3.546,3.546,0,0,1-.382,1.058,3.617,3.617,0,0,1-.467.66l-.051.056a2.548,2.548,0,0,1-1.045.74,4.146,4.146,0,0,1-2.372-.061,4.065,4.065,0,0,1-1.073-.533,11.648,11.648,0,0,1-1.018-.682,4.329,4.329,0,0,1-.75-.831c-.061-.09-.118-.182-.172-.277l-.218-.116c.626,2.058,2.634,2.749,3.792,3.236a2.35,2.35,0,0,0,1.836-.1,3.414,3.414,0,0,0,2.066-2.918A.213.213,0,0,0,465.8,385.719Z" transform="translate(-458.25 -385.719)"/></g><path class="an" d="M472.369,423.811a6.721,6.721,0,0,0,3.23,1.628s-.041.24-.809.208a4.851,4.851,0,0,1-3.067-1.693Z" transform="translate(-458.525 -414.081)"/><path class="ao" d="M424.715,328.421a1.862,1.862,0,0,0-.729,1.534c0,1.059.368,2.528-.668,2.977a2.4,2.4,0,0,1-3.1-.9C419.642,330.88,422.877,327.883,424.715,328.421Z" transform="translate(-409.346 -323.06)"/><path class="ap" d="M438.347,328.594a1.591,1.591,0,0,0-.314-.056,1.9,1.9,0,0,0-.63,1.455c0,1.059.368,2.528-.668,2.977a2.7,2.7,0,0,1-2.29-.069,2.642,2.642,0,0,0,2.5.2c1.035-.449.666-1.918.668-2.977A1.862,1.862,0,0,1,438.347,328.594Z" transform="translate(-422.979 -323.232)"/><path class="h" d="M405.081,223.573a2.086,2.086,0,0,0,2.78.068c.585-.615.275-1.644.311-2.391.035-.7.2-1.688,1.1-1.654,1.8.068,4.94.524,5.284-.347.442-1.12-.284-2.661-1.04-3.474a5.736,5.736,0,0,0-5.922-1.163,4.963,4.963,0,0,0-3.284,3.085,8.151,8.151,0,0,0-.392,2.467,5.2,5.2,0,0,0,.7,2.913A2.239,2.239,0,0,0,405.081,223.573Z" transform="translate(-393.872 -214.271)"/><path class="aq" d="M414.56,230.766c.442-1.12-.284-2.661-1.04-3.474a4.385,4.385,0,0,0-1.273-.943s1.916,1.535,1.06,3-6.659.359-7.8,1.119.207,3.18-.2,3.813-2.017-1.409-.905-5.292c-.028.073-.056.147-.08.222a8.152,8.152,0,0,0-.392,2.467,5.2,5.2,0,0,0,.7,2.913,2.244,2.244,0,0,0,.462.5,2.086,2.086,0,0,0,2.78.068c.585-.615.275-1.644.311-2.391.035-.7.2-1.688,1.1-1.654C411.079,231.181,414.216,231.637,414.56,230.766Z" transform="translate(-393.872 -225.788)"/><path class="p" d="M425.932,256.961a3.3,3.3,0,0,1,.494,2.741c-.344.871-3.48.415-5.285.347-.905-.034-1.068.949-1.1,1.654-.037.747.274,1.777-.311,2.391a2.086,2.086,0,0,1-2.78-.068,2.279,2.279,0,0,1-.408-.423c.035.061.072.121.111.18a2.244,2.244,0,0,0,.462.5,2.086,2.086,0,0,0,2.78.068c.585-.615.275-1.644.311-2.391.035-.7.2-1.688,1.1-1.654,1.8.068,4.941.524,5.284-.347A3.477,3.477,0,0,0,425.932,256.961Z" transform="translate(-405.904 -254.979)"/><g class="z" transform="translate(10.05 0)"><path class="h" d="M404.315,217.985A4.963,4.963,0,0,1,407.6,214.9a5.736,5.736,0,0,1,5.922,1.163,4.518,4.518,0,0,1,1.169,2.562,4.317,4.317,0,0,0-1.169-2.851,5.736,5.736,0,0,0-5.922-1.163,4.963,4.963,0,0,0-3.284,3.085,8.152,8.152,0,0,0-.392,2.467c0,.073,0,.146,0,.22A8.147,8.147,0,0,1,404.315,217.985Z" transform="translate(-403.923 -214.27)"/><path class="h" d="M495.406,370.765c-.016.327.034.708.047,1.085.013-.361-.034-.741-.047-1.085Z" transform="translate(-491.156 -363.498)"/></g><path class="ar" d="M459.978,329.527s.486,2.906-1.212,4.768-3.9-2.037-6.1-2.225c-1.759-.933-2.786-3.72.8-3.078a39.611,39.611,0,0,0,6.245,0Z" transform="translate(-438.821 -323.575)"/><path class="ar" d="M472.97,331.47l-.272-.535a.619.619,0,0,1-.063.015l.178.35s.486,2.906-1.212,4.768-3.9-2.037-6.1-2.225a3.414,3.414,0,0,1-.816-.614,3.455,3.455,0,0,0,.973.783c2.2.188,4.4,4.088,6.1,2.225S472.97,331.47,472.97,331.47Z" transform="translate(-451.813 -325.518)"/><path class="as" d="M507.99,308.258c.228.065.453.145.673.231a5.2,5.2,0,0,1,.709.32,1.348,1.348,0,0,1,.548.48c.124.271-.218.347-.406.394a5.808,5.808,0,0,1-.757.124,20.183,20.183,0,0,1-2.186.1c-.813,0-1.627-.026-2.438-.1a9.791,9.791,0,0,1-1.918-.3l-.114-.036C500.237,308.854,506.683,308.926,507.99,308.258Z" transform="translate(-487.172 -303.894)"/><path class="at" d="M509.938,321.94a1.137,1.137,0,0,0-.44-.415.641.641,0,0,1,.131.178c.124.271-.218.347-.406.394a5.84,5.84,0,0,1-.757.124,20.161,20.161,0,0,1-2.186.1c-.813,0-1.627-.026-2.438-.1a9.784,9.784,0,0,1-1.918-.3l-.114-.036-.011,0c-.054.067.036.146.32.24l.114.036a9.8,9.8,0,0,0,1.918.3c.81.07,1.625.1,2.438.1a20.161,20.161,0,0,0,2.186-.1,5.819,5.819,0,0,0,.757-.124C509.719,322.287,510.061,322.211,509.938,321.94Z" transform="translate(-487.19 -316.545)"/><path class="as" d="M438.486,323.931c.086-.016.172-.026.252-.036a3.861,3.861,0,0,1,1.031.008c.269.038.942.116.8.543a5.965,5.965,0,0,0-.262,2.692.3.3,0,0,1-.362.308,2.88,2.88,0,0,1-2.079-2.8.794.794,0,0,1,.162-.488A.734.734,0,0,1,438.486,323.931Z" transform="translate(-426.243 -318.776)"/><circle class="au" cx="0.574" cy="0.574" r="0.574" transform="translate(12.388 5.671)"/><path class="av" d="M452.554,326.886a3.138,3.138,0,1,1-.747-.09A1.625,1.625,0,0,1,452.554,326.886Z" transform="translate(-438.82 -321.571)"/><path class="aw" d="M440.435,328.391a5.965,5.965,0,0,1,.262-2.692c.118-.361-.343-.472-.652-.521,0,0,.472.136.29.8s-.072,1.615-.77,1.749c-.963.184-1.554-1.577-1.566-1.612a2.872,2.872,0,0,0,2.073,2.587A.3.3,0,0,0,440.435,328.391Z" transform="translate(-426.368 -320.028)"/><ellipse class="ax" cx="1.67" cy="0.794" rx="1.67" ry="0.794" transform="translate(11.35 2.029) rotate(-27.27)"/><path class="ax" d="M494.852,262.68c.1.184-.142.5-.53.7s-.779.212-.874.028.142-.5.53-.7S494.757,262.5,494.852,262.68Z" transform="translate(-479.221 -260.308)"/><circle class="ay" cx="0.517" cy="0.517" r="0.517" transform="translate(21.423 13.679) rotate(-13.283)"/><path class="az" d="M656.966,509.481c0,.076-.113.137-.253.137s-.253-.061-.253-.137.113-.137.253-.137S656.966,509.405,656.966,509.481Z" transform="translate(-634.684 -495.643)"/></g></g></svg>