<svg xmlns="http://www.w3.org/2000/svg" xmlns:xlink="http://www.w3.org/1999/xlink" width="500" zoomAndPan="magnify" viewBox="0 0 375 374.999991" height="500" preserveAspectRatio="xMidYMid meet" version="1.0"><defs><clipPath id="ee1b93b3fb"><path d="M 150.609375 108 L 238.261719 108 L 238.261719 266.996094 L 150.609375 266.996094 Z M 150.609375 108 " clip-rule="nonzero"/></clipPath><clipPath id="6ddb2f7da0"><path d="M 37.5 132 L 133 132 L 133 243 L 37.5 243 Z M 37.5 132 " clip-rule="nonzero"/></clipPath><clipPath id="f7ce4132a4"><path d="M 242 132 L 337.5 132 L 337.5 243 L 242 243 Z M 242 132 " clip-rule="nonzero"/></clipPath></defs><g clip-path="url(#ee1b93b3fb)"><path fill="#e45814" d="M 237.667969 125.488281 C 237.097656 124.238281 236.0625 123.183594 234.675781 122.621094 C 231.894531 121.496094 228.757812 122.761719 227.671875 125.449219 L 215.289062 156.054688 C 214.203125 158.746094 211.644531 160.246094 209.574219 159.40625 C 207.507812 158.570312 206.714844 155.714844 207.800781 153.027344 L 220.183594 122.417969 C 220.726562 121.078125 220.652344 119.628906 220.101562 118.382812 C 219.550781 117.136719 218.507812 116.078125 217.121094 115.519531 C 214.332031 114.390625 211.195312 115.65625 210.109375 118.339844 L 197.726562 148.949219 C 196.636719 151.636719 194.078125 153.136719 192.015625 152.304688 C 189.945312 151.464844 189.148438 148.609375 190.238281 145.921875 L 202.621094 115.3125 C 203.167969 113.972656 203.085938 112.519531 202.535156 111.277344 C 201.984375 110.03125 200.945312 108.972656 199.554688 108.410156 C 196.765625 107.285156 193.644531 108.554688 192.554688 111.242188 L 175.925781 152.339844 C 171.9375 162.199219 174.746094 173.132812 181.972656 179.859375 L 151.324219 255.613281 C 149.632812 259.792969 151.773438 264.605469 156.097656 266.355469 C 160.421875 268.109375 165.304688 266.132812 166.996094 261.957031 L 197.625 186.25 C 207.542969 186.503906 217.109375 180.542969 221.121094 170.640625 L 237.75 129.523438 C 238.292969 128.183594 238.21875 126.730469 237.667969 125.488281 " fill-opacity="1" fill-rule="nonzero"/></g><g clip-path="url(#6ddb2f7da0)"><path fill="#04383f" d="M 41.921875 180.398438 L 120.429688 133.25 C 121.613281 132.59375 122.929688 132.265625 124.375 132.265625 C 126.546875 132.265625 128.402344 133.035156 129.949219 134.582031 C 131.492188 136.128906 132.265625 137.984375 132.265625 140.15625 C 132.265625 142.980469 130.917969 145.285156 128.222656 147.058594 L 60.757812 187.496094 L 128.222656 227.9375 C 130.917969 229.710938 132.265625 232.015625 132.265625 234.839844 C 132.265625 237.011719 131.492188 238.867188 129.949219 240.414062 C 128.402344 241.960938 126.546875 242.730469 124.375 242.730469 C 122.929688 242.730469 121.613281 242.402344 120.429688 241.746094 L 41.921875 194.601562 C 39.027344 192.757812 37.582031 190.390625 37.582031 187.496094 C 37.582031 184.605469 39.027344 182.238281 41.921875 180.398438 " fill-opacity="1" fill-rule="nonzero"/></g><g clip-path="url(#f7ce4132a4)"><path fill="#04383f" d="M 337.417969 187.496094 C 337.417969 190.390625 335.972656 192.757812 333.078125 194.601562 L 254.570312 241.746094 C 253.386719 242.402344 252.070312 242.730469 250.625 242.730469 C 248.453125 242.730469 246.597656 241.960938 245.050781 240.414062 C 243.507812 238.867188 242.730469 237.011719 242.730469 234.839844 C 242.730469 232.015625 244.082031 229.710938 246.777344 227.9375 L 314.242188 187.496094 L 246.777344 147.058594 C 244.082031 145.285156 242.730469 142.980469 242.730469 140.15625 C 242.730469 137.984375 243.507812 136.128906 245.050781 134.582031 C 246.597656 133.035156 248.453125 132.265625 250.625 132.265625 C 252.070312 132.265625 253.386719 132.59375 254.570312 133.25 L 333.078125 180.398438 C 335.972656 182.238281 337.417969 184.605469 337.417969 187.496094 " fill-opacity="1" fill-rule="nonzero"/></g></svg>