<?xml version="1.0" encoding="UTF-8"?><svg xmlns="http://www.w3.org/2000/svg" width="40.682" height="41.747" viewBox="0 0 40.682 41.747"><defs><style>.a,.e{fill:#272b40;}.af,.ap,.ar,.at,.ax,.b,.e,.j,.p,.z{opacity:0.3;}.ad,.aj,.ap,.aq,.at,.aw,.b,.c,.e,.f,.j,.p,.q,.s,.t,.u,.w,.x{mix-blend-mode:multiply;}.ad,.ai,.aj,.ak,.ap,.aq,.at,.av,.aw,.ax,.az,.b,.c,.e,.f,.j,.k,.p,.q,.s,.t,.u,.w,.x,.z{isolation:isolate;}.aw,.c,.w{opacity:0.2;}.d{fill:#afb3ad;}.ai,.ak,.av,.az,.f,.k,.s,.u,.x{opacity:0.5;}.g{fill:#ff2424;}.aj,.aq,.ax,.h,.k,.p,.t,.u{fill:#f98a10;}.i,.j{fill:#ea7706;}.ai,.ak,.av,.ax,.az,.k,.z{mix-blend-mode:screen;}.l{fill:#f4ab7a;}.m{fill:#1c1e26;}.n{fill:#e23737;}.ak,.o,.x{fill:#ffc299;}.r{fill:#e5e8e5;}.s{fill:#ccc;}.t{opacity:0.4;}.v,.w{fill:#742f19;}.y{fill:#dcf6f7;}.aa{fill:#121419;}.ab,.ar{fill:#fff;}.ac,.ad{fill:#fff599;}.ae{fill:#1d1d1b;}.af{fill:#f94646;}.ag{fill:#1e212d;}.ah{fill:#282623;}.aj{opacity:0.25;}.al{fill:#fffdfd;}.am{fill:#aacde2;}.an{fill:#494746;}.ao,.ap{fill:#6b6865;}.aq{opacity:0.1;}.as,.at,.av,.aw{fill:#e8790a;}.au{fill:#3a3a3a;}.ay,.az{fill:#202433;}</style></defs><g transform="translate(-187.485 -214.27)"><g transform="translate(187.485 214.27)"><g transform="translate(8.42 30.007)"><circle class="a" cx="4.151" cy="4.151" r="4.151" transform="translate(0 5.87) rotate(-45)"/><g class="b" transform="translate(0 0)"><circle class="a" cx="4.151" cy="4.151" r="4.151" transform="translate(0 5.87) rotate(-45)"/></g><circle class="a" cx="3.622" cy="3.622" r="3.622" transform="translate(0.747 5.87) rotate(-45)"/><g class="c" transform="translate(2.491 2.491)"><circle class="a" cx="2.586" cy="2.586" r="2.586" transform="translate(0 4.778) rotate(-67.5)"/></g><circle class="d" cx="2.307" cy="2.307" r="2.307" transform="translate(2.608 5.87) rotate(-45)"/></g><path class="a" d="M187.912,506.434h0a.427.427,0,0,1-.427-.427v-1.169a.427.427,0,0,1,.427-.427h0a.427.427,0,0,1,.427.427v1.169A.427.427,0,0,1,187.912,506.434Z" transform="translate(-187.485 -485.213)"/><path class="a" d="M230.2,623.071l-5.6-3.821a.328.328,0,0,1-.086-.456h0a.328.328,0,0,1,.456-.086l5.6,3.821a.328.328,0,0,1,.086.456h0A.328.328,0,0,1,230.2,623.071Z" transform="translate(-222.013 -591.893)"/><path class="e" d="M230.665,622.909l-5.6-3.821a.328.328,0,0,1-.119-.393.328.328,0,0,0-.344.557l5.6,3.821a.328.328,0,0,0,.456-.086h0a.331.331,0,0,0,.033-.062Z" transform="translate(-222.013 -591.895)"/><path class="a" d="M208.435,614.781H196.83a.447.447,0,0,1-.447-.447h0a.447.447,0,0,1,.447-.447h11.605a.447.447,0,0,1,.447.447h0A.447.447,0,0,1,208.435,614.781Z" transform="translate(-195.794 -587.445)"/><g class="f" transform="translate(0.589 26.658)"><path class="a" d="M208.435,617.349H196.83a.446.446,0,0,1-.381-.215.446.446,0,0,0,.381.679h11.605a.446.446,0,0,0,.381-.679A.446.446,0,0,1,208.435,617.349Z" transform="translate(-196.383 -617.134)"/></g><path class="g" d="M312.462,645.91h0a.461.461,0,0,1-.121-.641l.653-.956a.461.461,0,0,1,.641-.121h0a.461.461,0,0,1,.121.641l-.653.957A.461.461,0,0,1,312.462,645.91Z" transform="translate(-304.005 -615.668)"/><path class="h" d="M489.2,730.125h-9.525a1.085,1.085,0,0,1-1.086-1.085h0a1.085,1.085,0,0,1,1.086-1.085H489.2a1.085,1.085,0,0,1,1.085,1.085h0A1.085,1.085,0,0,1,489.2,730.125Z" transform="translate(-459.327 -693.963)"/><g transform="translate(30.605 15.197)"><path class="a" d="M651.823,448.7a.042.042,0,0,1-.042-.039,16.11,16.11,0,0,0-.742-4.063c-.186-.366-.384-.559-.586-.575a.483.483,0,0,0-.38.2.042.042,0,0,1-.068-.049.565.565,0,0,1,.455-.23c.233.018.453.227.654.62a15.794,15.794,0,0,1,.751,4.1.042.042,0,0,1-.039.045Z" transform="translate(-649.996 -443.933)"/></g><g transform="translate(29.582 13.878)"><ellipse class="i" cx="0.606" cy="1.561" rx="0.606" ry="1.561" transform="translate(0 0.29) rotate(-13.818)"/><path class="j" d="M643.574,429.426a3.767,3.767,0,0,1,.2.589c.206.837.109,1.581-.216,1.661-.132.032-.281-.051-.425-.215.223.516.523.842.766.783.325-.08.422-.823.216-1.661A2.86,2.86,0,0,0,643.574,429.426Z" transform="translate(-642.56 -429.066)"/><path class="k" d="M641.286,435.147c.1.39.112.721.036.74s-.215-.282-.311-.672-.112-.721-.036-.74S641.19,434.757,641.286,435.147Z" transform="translate(-640.504 -433.78)"/></g><path class="l" d="M630.234,476.382a2.951,2.951,0,0,1,2.606-.407c1.3.545,1.457,1.156,1.324,1.93s-3.318.44-3.318.44Z" transform="translate(-600.937 -458.5)"/><path class="m" d="M496.557,454.72a.167.167,0,0,1-.1.178c-4.623,2.1-7.592.7-10.347-1.7a1.474,1.474,0,0,1-.049-2.111l.036-.037a1.251,1.251,0,0,1,1.746-.065,7.149,7.149,0,0,0,7.741,1.464.166.166,0,0,1,.223.106A22.026,22.026,0,0,1,496.557,454.72Z" transform="translate(-465.914 -435.025)"/><path class="n" d="M508.788,375.727a1.131,1.131,0,0,1,0-1.7c.916-.811,2.228.118,2.473-.419s-2.394-3.145-4.619-1.638-.06,4.995,1.021,4.49S508.911,376.532,508.788,375.727Z" transform="translate(-484.62 -361.102)"/><rect class="l" width="2.041" height="2.419" transform="translate(25.895 30.725)"/><path class="m" d="M572.947,697.182a.689.689,0,0,0-.665-.51h-1.662a.69.69,0,0,0-.69.69v.726c0,.023,0,.045,0,.067a.589.589,0,0,0,.586.652h3.088a.589.589,0,0,0,.589-.589v-.082C574.2,697.543,573.393,697.366,572.947,697.182Z" transform="translate(-544.624 -664.751)"/><g class="b" transform="translate(25.307 31.921)"><path class="m" d="M572.947,697.182a.689.689,0,0,0-.665-.51h-1.662a.69.69,0,0,0-.69.69v.726c0,.023,0,.045,0,.067a.589.589,0,0,0,.586.652h3.088a.589.589,0,0,0,.589-.589v-.082C574.2,697.543,573.393,697.366,572.947,697.182Z" transform="translate(-569.931 -696.672)"/></g><rect class="o" width="2.041" height="2.419" transform="translate(24.953 31.295)"/><path class="h" d="M309.145,588.352c-6.26,0-9.379,3.586-10.654,8.285a1.2,1.2,0,0,0,.955,1.6h14.629c.569,0,1.113.039,1.094-.648C315.036,592.724,313.908,588.352,309.145,588.352Z" transform="translate(-291.098 -563.599)"/><g class="b" transform="translate(7.342 28.016)"><path class="h" d="M312.886,645.055c-.051,0-.1,0-.157,0h-.363c-1.589-.09-1.342-1.423-1.342-1.423l-2.928-4.994a9.928,9.928,0,0,0-5.757.791c-2.8,1.387-2.217,3.234-3.008,2.717s1.709-4.462,1.725-4.488a12.37,12.37,0,0,0-2.565,5.022,1.2,1.2,0,0,0,.955,1.6h11.006a1.08,1.08,0,0,0-.092.437h0a1.079,1.079,0,0,0,.11.474l.012.024c.009.018.019.035.029.052l.018.029.032.048.022.029c.011.015.022.03.035.044l.026.029c.021.023.042.045.065.065l.035.032.036.029.04.03.037.025.047.029.034.019q.039.021.08.039l.019.008c.025.01.05.019.075.028l.033.009.064.016.035.007.068.01.032,0c.033,0,.067.005.1.005h9.525a1.086,1.086,0,0,0,1.031-.748Z" transform="translate(-298.44 -637.657)"/></g><path class="p" d="M360.209,588.352a10.672,10.672,0,0,0-7.087,2.29c0,.046.131,1.208,3.211.906,3.142-.308,4.69-.613,6.023.05,1.153.573,2.327.572,2.843.053A5.034,5.034,0,0,0,360.209,588.352Z" transform="translate(-342.162 -563.599)"/><path class="k" d="M467.021,598.14a1.063,1.063,0,0,1-.043-.522h-5.356a.639.639,0,0,1,0,.088c0-.028,0-.057,0-.088-.132-4.817-1.239-9.148-5.881-9.236-.744.784-.787,1.55,1.219,1.781,4.713.544,4.473,7.673,4.473,7.673Z" transform="translate(-437.55 -563.628)"/><circle class="d" cx="2.307" cy="2.307" r="2.307" transform="translate(11.06 35.877) rotate(-45)"/><g class="q" transform="translate(12.601 34.157)"><circle class="d" cx="1.317" cy="1.317" r="1.317" transform="translate(0 2.433) rotate(-67.5)"/></g><circle class="a" cx="4.151" cy="4.151" r="4.151" transform="translate(28.942 35.877) rotate(-45)"/><g class="b" transform="translate(28.942 30.007)"><circle class="a" cx="4.151" cy="4.151" r="4.151" transform="translate(0 5.87) rotate(-45)"/></g><circle class="a" cx="3.622" cy="3.622" r="3.622" transform="translate(30.454 33.184) rotate(-13.283)"/><g class="c" transform="translate(31.701 32.766)"><circle class="a" cx="2.586" cy="2.586" r="2.586" transform="translate(0 1.188) rotate(-13.283)"/></g><circle class="d" cx="2.307" cy="2.307" r="2.307" transform="translate(32.166 33.97) rotate(-9.217)"/><g class="q" transform="translate(33.102 34.167)"><circle class="d" cx="1.309" cy="1.309" r="1.309" transform="translate(0 2.418) rotate(-67.5)"/></g><path class="r" d="M682.868,682.006l-1.111-4.356a.952.952,0,0,1,.687-1.157h0a.952.952,0,0,1,1.157.687l1.112,4.356a.952.952,0,0,1-.687,1.157h0A.952.952,0,0,1,682.868,682.006Z" transform="translate(-649.023 -645.879)"/><path class="r" d="M389.043,680.1l.185-4.491a.952.952,0,0,1,.99-.912h0a.952.952,0,0,1,.911.99l-.185,4.491a.952.952,0,0,1-.99.912h0A.952.952,0,0,1,389.043,680.1Z" transform="translate(-375.705 -644.226)"/><path class="s" d="M683.741,687.209l-.133-.522c0-.011-.007-.022-.01-.034a9.388,9.388,0,0,0-1.311.028c-.2.025-.378.052-.538.079a.946.946,0,0,0,.015.4l.144.566A3.5,3.5,0,0,1,683.741,687.209Z" transform="translate(-649.03 -655.387)"/><g transform="translate(8.701 28.582)"><path class="h" d="M326.209,646.212c-4.229,0-6.336,2.423-7.2,5.6a.811.811,0,0,0,.645,1.082h9.882a.767.767,0,0,0,.68-.849C330.129,648.753,329.426,646.212,326.209,646.212Z" transform="translate(-318.978 -646.212)"/><path class="t" d="M326.209,646.212c-4.229,0-6.336,2.423-7.2,5.6a.811.811,0,0,0,.645,1.082h9.882a.767.767,0,0,0,.68-.849C330.129,648.753,329.426,646.212,326.209,646.212Z" transform="translate(-318.978 -646.212)"/><path class="p" d="M328.437,655.45a4.9,4.9,0,0,1,0,4.647c-.859,1.419-8.968.583-9.115-.62q-.175.465-.309.958a.811.811,0,0,0,.645,1.082h9.882a.767.767,0,0,0,.68-.85C330.155,658.344,329.784,656.394,328.437,655.45Z" transform="translate(-318.978 -654.839)"/></g><path class="p" d="M313.752,654.481c.72-2.653,2.311-4.78,5.284-5.407-3.214.522-4.908,2.715-5.657,5.477a.986.986,0,0,0-.026.39h.386A.984.984,0,0,1,313.752,654.481Z" transform="translate(-305.016 -620.302)"/><path class="m" d="M449.611,566.263s6.659-.643,5.923,7.993h-2.615s1.3-5.391-2.677-5.6-6.486.052-6.329-1.2S449.611,566.263,449.611,566.263Z" transform="translate(-426.938 -542.961)"/><path class="h" d="M645.206,486.006s-1.335-4.993,2.595-6.088l1.126,3.72s-.942.837-.246,3.193S645.748,489.473,645.206,486.006Z" transform="translate(-614.714 -462.34)"/><path class="u" d="M649.528,550.379c-.836-1.125-2.234-1.574-2.9-1.153a1.3,1.3,0,0,0-.5.591,6.837,6.837,0,0,0,.143.766c.541,3.467,4.169,3.18,3.474.825A6.407,6.407,0,0,1,649.528,550.379Z" transform="translate(-615.782 -526.916)"/><path class="u" d="M669.466,480.005a3.4,3.4,0,0,0,.906,5.435,2.284,2.284,0,0,1,.5-1.8l-1.126-3.72C669.647,479.945,669.555,479.974,669.466,480.005Z" transform="translate(-636.656 -462.34)"/><path class="v" d="M359.719,575.747a2.556,2.556,0,0,0-2.131,1.18c-1.049,1.788,1.913,2.339,3.105,2.265a15.037,15.037,0,0,1,5.18.14c.958.272,2.074,1.129,3.082.574.689-.38.365-1.649-.056-2.125a5.783,5.783,0,0,0-3.408-1.732,19.947,19.947,0,0,0-5.38-.339C359.978,575.72,359.847,575.732,359.719,575.747Z" transform="translate(-346.126 -551.744)"/><path class="w" d="M365.491,576.049a19.955,19.955,0,0,0-5.38-.339c-.132.01-.263.022-.392.037a3.265,3.265,0,0,0-1.467.466c1.065-.482,1.446-.694,2.256.522s3.586,1.825,2.247,1.688-3.018.51-4.293-.078a1.2,1.2,0,0,1-.681-1.7,2.369,2.369,0,0,0-.192.28c-1.049,1.788,1.913,2.339,3.1,2.265a15.036,15.036,0,0,1,5.18.14c.958.272,2.074,1.129,3.082.574.689-.38.365-1.649-.056-2.125A5.783,5.783,0,0,0,365.491,576.049Zm3.176,3.61a5.383,5.383,0,0,1-2.811-.785c-.3-.393,2.016-.393,2.016-.393s.785-.02.922.5S368.667,579.659,368.667,579.659Z" transform="translate(-346.126 -551.743)"/><path class="a" d="M426.594,569.283s6.123-1.111,5.387,7.525h-2.639s.371-5.456-4.027-4.867c-3.945.528-5.474-1.022-5.318-2.278S426.594,569.283,426.594,569.283Z" transform="translate(-404.602 -545.514)"/><path class="e" d="M426.594,569.283s-6.44-.877-6.6.379,1.373,2.807,5.318,2.278c4.4-.589,4.027,4.867,4.027,4.867h.623a1.983,1.983,0,0,0,.127-.569,6.106,6.106,0,0,0-1.634-4.459c-1.1-1.035-2.7-.188-3.062-.921S426.594,569.283,426.594,569.283Z" transform="translate(-404.602 -545.514)"/><path class="h" d="M418.646,435.915a5.347,5.347,0,0,0-1.664.89c-1.976,1.685-1.872,4.112-1.759,6.667.262,5.929,4.886,1.021,6.875,1.335s-.262-1.151-.262-1.989.031-3.616.171-5.641C422.116,435.586,419.976,435.466,418.646,435.915Z" transform="translate(-400.105 -421.037)"/><path class="p" d="M459.8,444.379c-.278-.44-.969-1.1-.969-1.562,0-.837.031-3.616.171-5.641.11-1.59-2.03-1.71-3.36-1.262a2.562,2.562,0,0,0,.428.661c.314.366.008.582-.428,1.034a2.175,2.175,0,0,0-.381,3.025c1.064,1.43.2,4.2,1.339,3.844s1.8-.553,2.263-.2C459.263,444.584,459.721,444.76,459.8,444.379Z" transform="translate(-437.103 -421.037)"/><path class="o" d="M474.244,435.61a3.142,3.142,0,0,0,1.154,1.543c1.435.853,1.52.394,1.5-.246S474.931,435.217,474.244,435.61Z" transform="translate(-455.269 -420.883)"/><path class="x" d="M474.244,435.61a3.142,3.142,0,0,0,1.154,1.543c1.435.853,1.52.394,1.5-.246S474.931,435.217,474.244,435.61Z" transform="translate(-455.269 -420.883)"/><path class="y" d="M541.472,373.855a.8.8,0,0,1-.785.648c-.439,0-2.914-1.851-2.9-2.453s1.629-.255,2.532.373A3.083,3.083,0,0,1,541.472,373.855Z" transform="translate(-514.603 -361.317)"/><path class="y" d="M519.67,400.523s.432-.294.412-.628-.334-.491-1.158-.824-2.12-1.1-2.179-1.727-1.06,1.57.393,2.336S519.313,400.914,519.67,400.523Z" transform="translate(-494.594 -385.126)"/><path class="o" d="M451.448,270.975a13.549,13.549,0,0,1-.358,2.62,4.222,4.222,0,0,1-.975,1.8.429.429,0,0,1-.251.144c-.257.02-.482-.413-.632-.588a6.134,6.134,0,0,0-.672-.68,2.32,2.32,0,0,0-1.84-.666,1.741,1.741,0,0,0-1.511,2.12c.079.863,1.354,1.569,2.3,1.668s1.482-.117,1.086.372a4.428,4.428,0,0,1-4.437.625c-3.2-1.22-4.413-3.471-4.413-6.9a5.212,5.212,0,0,1,5.6-5.59C448.772,265.9,451.7,267.554,451.448,270.975Z" transform="translate(-423.049 -262.485)"/><g class="z" transform="translate(18.975 3.416)"><path class="o" d="M477.562,265.9a6.03,6.03,0,0,0-3.318.89,6.2,6.2,0,0,1,3.014-.708c3.43,0,6.355,1.653,6.105,5.074a13.555,13.555,0,0,1-.359,2.62,4.283,4.283,0,0,1-.938,1.764h.016a.43.43,0,0,0,.251-.144,4.222,4.222,0,0,0,.974-1.8,13.556,13.556,0,0,0,.359-2.62C483.917,267.554,480.992,265.9,477.562,265.9Z" transform="translate(-474.244 -265.901)"/></g><rect class="aa" width="3.101" height="1.374" rx="0.687" transform="translate(25.89 30.097)"/><g transform="translate(32.243 16.241)"><path class="ab" d="M705.847,470.291v5.8a2.9,2.9,0,1,0,0-5.8Z" transform="translate(-703.789 -469.591)"/><path class="ac" d="M714.067,470.291v5.8a2.9,2.9,0,1,0,0-5.8Z" transform="translate(-711.465 -469.591)"/><path class="ad" d="M726.852,472.19a3.135,3.135,0,0,1,0,5.551,2.9,2.9,0,0,0,0-5.551Z" transform="translate(-723.404 -471.365)"/><path class="h" d="M674.749,466.136a3.4,3.4,0,0,0,3.4,3.4v-6.8A3.4,3.4,0,0,0,674.749,466.136Z" transform="translate(-674.749 -462.535)"/><g class="b" transform="translate(0 2.958)"><path class="h" d="M674.811,504.412a3.4,3.4,0,0,0,3.34,4.045v-1.573A3.554,3.554,0,0,1,674.811,504.412Z" transform="translate(-674.749 -504.412)"/></g><path class="u" d="M717.25,462.883v6.506a.338.338,0,0,0,.02.1,3.4,3.4,0,0,0,.569.051v-6.8a3.4,3.4,0,0,0-.569.051A.338.338,0,0,0,717.25,462.883Z" transform="translate(-714.438 -462.535)"/><g transform="translate(2.979)"><path class="h" d="M720.116,466.919a.348.348,0,0,1-.348-.348v-6.506a.348.348,0,0,1,.7,0v6.506A.348.348,0,0,1,720.116,466.919Z" transform="translate(-719.768 -459.717)"/></g></g><path class="h" d="M642,554.841c-.807-1.286-2.344-1.823-3.053-1.375h0a2.241,2.241,0,0,0-.505,2.566,8.2,8.2,0,0,1-.839,7.1l5.957-1.261A11.024,11.024,0,0,0,642,554.841Z" transform="translate(-607.82 -530.876)"/><circle class="a" cx="1.099" cy="1.099" r="1.099" transform="translate(30.094 19.225) rotate(-13.283)"/><circle class="o" cx="0.935" cy="0.935" r="0.935" transform="matrix(0.973, -0.23, 0.23, 0.973, 26.68, 11.107)"/><ellipse class="ae" cx="0.883" cy="0.665" rx="0.883" ry="0.665" transform="translate(25.442 10.826) rotate(-84.725)"/><path class="af" d="M543.495,363.419c-.069.179-.412.213-.766.077s-.585-.393-.516-.572.412-.213.766-.076S543.564,363.24,543.495,363.419Z" transform="translate(-518.729 -352.938)"/><path class="o" d="M606.05,484.561a2.951,2.951,0,0,1,2.5-.841c1.37.318,2.107,1.054,1.631,1.679-.367.482-1.739.008-3.2.995Z" transform="translate(-578.353 -465.839)"/><rect class="ag" width="3.101" height="1.374" rx="0.687" transform="translate(24.501 30.097)"/><path class="ag" d="M561.679,697.182a.689.689,0,0,0-.665-.51h-1.661a.69.69,0,0,0-.69.69v.726c0,.023,0,.045,0,.067a.589.589,0,0,0,.586.652h3.088a.589.589,0,0,0,.589-.589v-.082C562.93,697.543,562.125,697.366,561.679,697.182Z" transform="translate(-534.102 -664.751)"/><path class="ah" d="M418.773,240.586c.845.072.709-1.278.334-2.021-.163-.323-.976-.5-1-1.592a1.088,1.088,0,0,1,1.82-.818c.786.654-.113,2.1.554,2.087s1.06-1.365,1.178-2.621a3.058,3.058,0,0,1,1.14-2c3.3-.094,6.764-.238,6.764-.238.265-.073.522-.221.517-.532a4.577,4.577,0,0,0-1.266-2.426,6.757,6.757,0,0,0-1.763-1.638,8.314,8.314,0,0,0-7.784-.136,5.684,5.684,0,0,0-2.537,2.2c-1.078,1.822-.681,3.972-.766,5.977C415.963,236.824,415.534,240.309,418.773,240.586Z" transform="translate(-400.827 -226.857)"/><path class="ab" d="M586.441,357.767c0,.131-.058.238-.129.238s-.129-.106-.129-.238.058-.238.129-.238S586.441,357.635,586.441,357.767Z" transform="translate(-559.801 -348.049)"/><path class="a" d="M472.829,466.881a.167.167,0,0,1-.1.178c-4.623,2.1-7.593.7-10.347-1.7a1.474,1.474,0,0,1-.049-2.111l.036-.037a1.251,1.251,0,0,1,1.746-.065,7.149,7.149,0,0,0,7.741,1.464.166.166,0,0,1,.223.106A22.068,22.068,0,0,1,472.829,466.881Z" transform="translate(-443.756 -446.381)"/><path class="k" d="M682.3,477.568c.072.1-.419.489-.736,1.121-.332.623-.385,1.247-.523,1.239s-.295-.732.106-1.458S682.243,477.47,682.3,477.568Z" transform="translate(-648.245 -460.127)"/><path class="k" d="M705.1,472.342c0,.084-.133.152-.3.152s-.3-.068-.3-.152.133-.152.3-.152S705.1,472.258,705.1,472.342Z" transform="translate(-670.298 -455.123)"/><path class="ab" d="M734.791,489.945c0,.394-.161.713-.36.713s-.36-.319-.36-.713.161-.713.36-.713S734.791,489.551,734.791,489.945Z" transform="translate(-697.903 -471.037)"/><g transform="translate(32.39 14.635)"><path class="a" d="M677.349,440.458l-.016,0a.063.063,0,0,1-.046-.077,16.1,16.1,0,0,0,.553-4.085c-.062-.392-.189-.638-.366-.712a.464.464,0,0,0-.4.066.063.063,0,0,1-.074-.1.587.587,0,0,1,.525-.081c.224.093.372.365.443.809a15.811,15.811,0,0,1-.555,4.135A.063.063,0,0,1,677.349,440.458Z" transform="translate(-676.972 -435.432)"/></g><g transform="translate(31.539 12.239)"><ellipse class="h" cx="0.8" cy="2.06" rx="0.8" ry="2.06"/><path class="p" d="M666.316,405.41a4.97,4.97,0,0,1,.065.816c0,1.138-.358,2.06-.8,2.06-.179,0-.344-.153-.477-.409.123.732.405,1.244.734,1.244.442,0,.8-.922.8-2.06A3.774,3.774,0,0,0,666.316,405.41Z" transform="translate(-665.039 -405.001)"/><path class="k" d="M668.857,410.268c0,.53-.084.96-.187.96s-.187-.43-.187-.96.084-.96.187-.96S668.857,409.738,668.857,410.268Z" transform="translate(-668.194 -408.641)"/></g><path class="a" d="M678.063,502.953a.388.388,0,1,0-.388.389A.389.389,0,0,0,678.063,502.953Z" transform="translate(-644.875 -483.488)"/><g class="b" transform="translate(29.785 24.832)"><path class="h" d="M643.562,595.708a10.983,10.983,0,0,0-.929-5.839c.021.067.988,3.277-.307,3.847s-3.085.755-3.023.34a8.833,8.833,0,0,0-.823-4.318,1.317,1.317,0,0,0-.121-.192c.024.109.051.217.084.323a8.2,8.2,0,0,1-.839,7.1Z" transform="translate(-637.605 -589.547)"/></g><path class="h" d="M641.438,665.883a.38.38,0,0,1-.422.08c-.392-.163-.6-.586-.861-.892a4.282,4.282,0,0,0-.7-.648,4.337,4.337,0,0,0-1.638-.744,4.207,4.207,0,0,0-1.715-.026,3.51,3.51,0,0,0-1.495.67,3.069,3.069,0,0,0-.977,1.347,3.434,3.434,0,0,0-.165.627l-.009.057a.013.013,0,0,1,0,.006c-.005.037-.01.075-.015.113-.1.64-.419.738-.462.748h0a2.072,2.072,0,0,1-.261.019c-.355,0-.66-.137-.783-.747a3.5,3.5,0,0,1,1.169-3.3,6.52,6.52,0,0,1,6.1-1.352,3.5,3.5,0,0,1,2.455,2.5,2.178,2.178,0,0,1,.018,1,1.2,1.2,0,0,1-.217.514Z" transform="translate(-602.462 -631.982)"/><g class="ai" transform="translate(32.515 22.801)"><path class="h" d="M681.342,563.182a21.043,21.043,0,0,0-.961-2.32c-.674-1.187-1.584-1.912-1.509-2.012a3.618,3.618,0,0,1,1.858,1.809A3.834,3.834,0,0,1,681.342,563.182Z" transform="translate(-678.867 -558.839)"/></g><g class="ai" transform="translate(30.525 29.872)"><path class="h" d="M657.2,667.86a5.644,5.644,0,0,0-8.4,0,5.162,5.162,0,0,1,8.4,0Z" transform="translate(-648.795 -665.7)"/></g><g transform="translate(11.914 30.853)"><path class="h" d="M402.065,682.807h0a.421.421,0,0,1-.421-.421v-1.434a.421.421,0,0,1,.421-.421h0Z" transform="translate(-399.387 -680.531)"/><path class="h" d="M390.7,682.807h0a.421.421,0,0,1-.421-.421v-1.434a.421.421,0,0,1,.421-.421h0Z" transform="translate(-388.77 -680.531)"/><path class="h" d="M379.326,682.807h0a.421.421,0,0,1-.421-.421v-1.434a.421.421,0,0,1,.421-.421h0Z" transform="translate(-378.153 -680.531)"/><path class="h" d="M367.957,682.807h0a.421.421,0,0,1-.421-.421v-1.434a.421.421,0,0,1,.421-.421h0Z" transform="translate(-367.536 -680.531)"/></g><g class="z" transform="translate(9.959 28.997)"><path class="h" d="M345.325,652.958c-.068.26-2.192-.014-4.122.637a13.168,13.168,0,0,0-3.209,1.656,6.008,6.008,0,0,1,3-2.3C343.131,652.036,345.429,652.674,345.325,652.958Z" transform="translate(-337.988 -652.476)"/></g><g class="z" transform="translate(12.085 24.466)"><path class="v" d="M372.439,585.2a1.423,1.423,0,0,1-.447-.3c-.347-.384-.355-.995-1.052-.867-.452.083-.994.681-.777,1.161.208.462.92.6,1.354.68C373.165,586.185,373.852,585.9,372.439,585.2Z" transform="translate(-370.113 -584.013)"/></g><rect class="h" width="10.82" height="10.088" rx="5.044" transform="translate(0.422 16.338)"/><path class="aj" d="M204.63,464.131v5.81a1.173,1.173,0,0,1-1.173,1.173H195.7a1.173,1.173,0,0,1-1.173-1.173v-6.588a1.255,1.255,0,0,0-.673,1.112v7.576a1.256,1.256,0,0,0,1.256,1.256h8.308a1.256,1.256,0,0,0,1.256-1.256v-7.576A1.255,1.255,0,0,0,204.63,464.131Z" transform="translate(-193.434 -446.87)"/><path class="e" d="M463.451,468.12a1.868,1.868,0,0,1-.84-2.3,1.362,1.362,0,0,0-.238.19l-.036.037a1.474,1.474,0,0,0,.049,2.111c2.755,2.4,5.724,3.8,10.347,1.7a.167.167,0,0,0,.1-.178,3.983,3.983,0,0,0-.169-.63C468.754,471.251,464.89,469.151,463.451,468.12Z" transform="translate(-443.756 -449.177)"/><path class="e" d="M559.711,696.672h-.358a.69.69,0,0,0-.69.69v.726c0,.023,0,.045,0,.067a.607.607,0,0,0,0,.063.589.589,0,0,0,.589.589h3.088a.589.589,0,0,0,.589-.589v-.082a.574.574,0,0,0-.055-.246.489.489,0,0,1-.455.574c-.615.079-1.753-.066-1.74-.5s-1.112.065-1.361-.523A.559.559,0,0,1,559.711,696.672Z" transform="translate(-534.102 -664.751)"/><g class="ai" transform="translate(21.275 0.333)"><path class="h" d="M516.026,222.253a10.2,10.2,0,0,0-7.031-2.74,6.759,6.759,0,0,1,7.031,2.74Z" transform="translate(-508.994 -219.31)"/></g><rect class="t" width="10.82" height="0.266" transform="translate(0.422 19.199)"/><path class="k" d="M218.073,465.475H209.66a.183.183,0,0,1-.183-.183h0a.183.183,0,0,1,.183-.183h8.413a.183.183,0,0,1,.183.183h0A.183.183,0,0,1,218.073,465.475Z" transform="translate(-208.022 -448.511)"/><path class="x" d="M458.926,362.458c-.3-.306-.69-.212-.667-.138s.285.116.475.324a.789.789,0,0,1,.126.16.42.42,0,0,0-.106-.041c-.311-.073-.542.229-.5.275s.234-.072.437-.015a.555.555,0,0,1,.234.119.569.569,0,0,0,.1.083.048.048,0,0,0,.064-.029A.708.708,0,0,0,458.926,362.458Z" transform="translate(-440.333 -352.454)"/><path class="ak" d="M614.236,383.9c.083.143.085.3.006.342s-.211-.033-.293-.176-.085-.3-.006-.342S614.153,383.756,614.236,383.9Z" transform="translate(-585.669 -372.498)"/><path class="ah" d="M440.333,355.569s0,0,0,0a0,0,0,0,0,0,0,.018.018,0,0,0,0-.005Z" transform="translate(-423.6 -346.218)"/><g transform="translate(34.119 31.89)"><path class="al" d="M704.1,700.1a.19.19,0,0,1-.185-.147l-.806-3.522a.19.19,0,1,1,.37-.085l.806,3.522a.19.19,0,0,1-.185.232Z" transform="translate(-703.105 -696.195)"/></g><path class="ah" d="M486.772,285.4l-6.9-1.647a9.75,9.75,0,0,0-1.339.206c-.515.137-1.853,1.75-1.922,1.853a2.627,2.627,0,0,0,.734.827c-.229.53-.352,1.2.442,1.245a3.46,3.46,0,0,0,2.078-.628,3.7,3.7,0,0,1,.972-.2c0,.319.141.7.817.819,1.226.216,2.907-1.005,2.907-1.005s-.626,1.086.25,1.013a1.62,1.62,0,0,0,.978-.5C487.28,286.41,486.772,285.4,486.772,285.4Z" transform="translate(-457.474 -279.154)"/><path class="ab" d="M468.711,363.764a11.2,11.2,0,0,1-3.735-.1,37.754,37.754,0,0,0-5.242-1.42l.043.442c1.923.249,2.675,2.188,1.611,2.672s-2.745-1.33-2.745-1.33l-.393-.21c.892,2.933,3.753,3.917,5.4,4.612a3.349,3.349,0,0,0,2.617-.139,4.865,4.865,0,0,0,2.944-4.158C469.23,363.836,469.006,363.751,468.711,363.764Z" transform="translate(-440.333 -352.453)"/><g class="b" transform="translate(17.917 11.345)"><path class="am" d="M469.008,385.719a5.053,5.053,0,0,1-.545,1.508,5.153,5.153,0,0,1-.666.941l-.073.08a3.632,3.632,0,0,1-1.489,1.054,5.909,5.909,0,0,1-3.381-.086,5.792,5.792,0,0,1-1.529-.76,16.6,16.6,0,0,1-1.451-.971,6.168,6.168,0,0,1-1.069-1.184c-.087-.128-.169-.26-.245-.4l-.311-.166c.892,2.933,3.753,3.917,5.4,4.612a3.349,3.349,0,0,0,2.617-.139,4.865,4.865,0,0,0,2.944-4.158A.3.3,0,0,0,469.008,385.719Z" transform="translate(-458.25 -385.719)"/></g><path class="an" d="M472.644,423.811a9.578,9.578,0,0,0,4.6,2.32s-.058.341-1.153.3a6.913,6.913,0,0,1-4.371-2.413Z" transform="translate(-452.915 -409.945)"/><path class="ao" d="M426.655,328.448a2.654,2.654,0,0,0-1.039,2.186c0,1.509.524,3.6-.952,4.243a3.421,3.421,0,0,1-4.419-1.285C419.427,331.952,424.036,327.682,426.655,328.448Z" transform="translate(-404.754 -320.808)"/><path class="ap" d="M440.006,328.617a2.262,2.262,0,0,0-.447-.079,2.71,2.71,0,0,0-.9,2.074c0,1.509.524,3.6-.952,4.243a3.848,3.848,0,0,1-3.263-.1,3.765,3.765,0,0,0,3.57.289c1.476-.64.949-2.734.952-4.243A2.653,2.653,0,0,1,440.006,328.617Z" transform="translate(-418.104 -320.977)"/><path class="h" d="M405.574,227.527c1.128.905,2.9,1.211,3.962.1.834-.876.392-2.343.444-3.408.049-1,.281-2.4,1.571-2.356,2.571.1,7.041.746,7.531-.494.63-1.6-.405-3.792-1.482-4.951-2.09-2.252-5.646-2.589-8.439-1.657a7.073,7.073,0,0,0-4.68,4.4,11.616,11.616,0,0,0-.559,3.515,7.414,7.414,0,0,0,.993,4.151A3.19,3.19,0,0,0,405.574,227.527Z" transform="translate(-389.6 -214.271)"/><path class="aq" d="M419.082,232.644c.63-1.6-.405-3.792-1.482-4.951a6.248,6.248,0,0,0-1.814-1.343c.005,0,2.73,2.188,1.511,4.279s-9.49.512-11.12,1.594.3,4.532-.292,5.434-2.875-2.008-1.29-7.542c-.04.1-.08.209-.114.316a11.617,11.617,0,0,0-.559,3.515,7.415,7.415,0,0,0,.993,4.151,3.2,3.2,0,0,0,.659.709c1.128.9,2.9,1.211,3.962.1.834-.876.392-2.343.444-3.408.049-1,.281-2.4,1.571-2.356C414.122,233.235,418.591,233.884,419.082,232.644Z" transform="translate(-389.6 -225.55)"/><path class="p" d="M429.925,256.961a4.705,4.705,0,0,1,.7,3.907c-.49,1.241-4.96.591-7.531.494-1.29-.049-1.522,1.352-1.571,2.356-.052,1.065.39,2.532-.444,3.408-1.061,1.114-2.835.809-3.962-.1a3.246,3.246,0,0,1-.581-.6c.05.087.1.172.158.256a3.2,3.2,0,0,0,.659.709c1.128.905,2.9,1.211,3.962.1.834-.876.392-2.343.444-3.408.049-1,.281-2.4,1.571-2.356,2.571.1,7.041.746,7.531-.495C431.387,259.908,430.765,258.176,429.925,256.961Z" transform="translate(-401.383 -254.136)"/><g class="z" transform="translate(14.322 0)"><path class="h" d="M404.482,219.563a7.073,7.073,0,0,1,4.68-4.4c2.793-.932,6.349-.595,8.439,1.657a6.439,6.439,0,0,1,1.666,3.652,6.153,6.153,0,0,0-1.666-4.063c-2.09-2.252-5.646-2.589-8.439-1.657a7.073,7.073,0,0,0-4.68,4.4,11.619,11.619,0,0,0-.559,3.515c0,.1,0,.209,0,.314A11.611,11.611,0,0,1,404.482,219.563Z" transform="translate(-403.923 -214.27)"/><path class="h" d="M495.408,370.765c-.023.466.049,1.009.067,1.546.019-.515-.049-1.056-.067-1.546Z" transform="translate(-489.35 -360.409)"/></g><path class="ar" d="M463.769,329.8s.692,4.141-1.728,6.8-5.558-2.9-8.693-3.171c-2.506-1.33-3.971-5.3,1.133-4.386a56.452,56.452,0,0,0,8.9,0Z" transform="translate(-433.619 -321.312)"/><path class="ar" d="M476.492,331.7l-.388-.763a.882.882,0,0,1-.09.022l.254.5s.692,4.141-1.728,6.8-5.558-2.9-8.693-3.171a4.867,4.867,0,0,1-1.163-.875,4.925,4.925,0,0,0,1.387,1.116c3.135.268,6.273,5.826,8.693,3.171S476.492,331.7,476.492,331.7Z" transform="translate(-446.341 -323.215)"/><path class="as" d="M510.636,308.258c.325.092.645.206.959.329a7.41,7.41,0,0,1,1.01.456,1.92,1.92,0,0,1,.781.684c.176.386-.311.494-.579.561a8.279,8.279,0,0,1-1.079.177,28.762,28.762,0,0,1-3.115.148c-1.159,0-2.319-.037-3.474-.137a13.959,13.959,0,0,1-2.733-.433q-.082-.024-.163-.051C499.588,309.107,508.774,309.21,510.636,308.258Z" transform="translate(-480.969 -302.039)"/><path class="at" d="M513.4,322.116a1.62,1.62,0,0,0-.627-.591.913.913,0,0,1,.187.254c.176.386-.311.495-.579.561a8.329,8.329,0,0,1-1.079.176,28.733,28.733,0,0,1-3.115.148c-1.159,0-2.319-.037-3.474-.137a13.948,13.948,0,0,1-2.733-.433q-.082-.024-.163-.051l-.016-.005c-.077.1.052.208.456.342.054.018.108.035.163.051a13.966,13.966,0,0,0,2.733.433c1.155.1,2.315.139,3.474.137a28.732,28.732,0,0,0,3.115-.148,8.292,8.292,0,0,0,1.079-.176C513.093,322.611,513.58,322.5,513.4,322.116Z" transform="translate(-480.986 -314.428)"/><path class="as" d="M438.749,323.959c.122-.022.245-.036.359-.051a5.5,5.5,0,0,1,1.47.012c.383.055,1.343.165,1.143.774a8.5,8.5,0,0,0-.373,3.837.423.423,0,0,1-.515.439,4.1,4.1,0,0,1-2.963-4,1.131,1.131,0,0,1,.23-.695A1.046,1.046,0,0,1,438.749,323.959Z" transform="translate(-421.301 -316.613)"/><circle class="au" cx="0.818" cy="0.818" r="0.818" transform="translate(17.655 8.081)"/><path class="av" d="M453.189,326.925a4.471,4.471,0,0,1-2.13,0,4.471,4.471,0,0,1,2.13,0Z" transform="translate(-433.618 -319.35)"/><path class="aw" d="M441.47,329.757a8.5,8.5,0,0,1,.373-3.837c.169-.514-.489-.672-.929-.742,0,0,.673.194.414,1.137s-.1,2.3-1.1,2.492c-1.372.263-2.215-2.248-2.231-2.3a4.093,4.093,0,0,0,2.955,3.687A.423.423,0,0,0,441.47,329.757Z" transform="translate(-421.423 -317.839)"/><ellipse class="ax" cx="2.379" cy="1.131" rx="2.379" ry="1.131" transform="translate(16.175 2.891) rotate(-27.27)"/><path class="ax" d="M495.457,262.736c.135.263-.2.706-.755.991s-1.11.3-1.245.04.2-.706.755-.991S495.322,262.473,495.457,262.736Z" transform="translate(-473.182 -259.355)"/><circle class="ay" cx="0.737" cy="0.737" r="0.737" transform="translate(30.529 19.494) rotate(-13.283)"/><path class="az" d="M657.181,509.539c0,.108-.161.2-.36.2s-.36-.087-.36-.2.161-.2.36-.2S657.181,509.431,657.181,509.539Z" transform="translate(-625.427 -489.819)"/></g></g></svg>